<svg xmlns="http://www.w3.org/2000/svg" width="1000.00" height="585.90" viewBox="0 0 1000.00 585.90">
  <path d="M 81.59 384.39 L 86.80 388.36 L 91.47 391.94 L 101.74 399.82 L 110.97 406.88 L 118.52 412.63 L 124.28 417.03 L 132.04 423.01 L 143.88 432.08 L 155.24 440.77 L 166.10 449.13 L 181.31 460.76 L 186.90 465.05 L 194.61 470.97 L 209.55 482.37 L 215.31 486.77 L 223.24 492.86 L 234.70 501.66 L 244.91 509.37 L 252.19 514.96 L 262.35 522.79 L 268.86 527.89 L 274.62 532.51 L 281.90 538.10 L 288.53 543.10 L 296.51 549.24 L 303.52 554.83 L 308.78 559.56 L 314.05 563.90 L 320.41 569.06 L 325.35 572.97 L 327.20 574.28 L 332.57 576.88 L 338.55 578.24 L 341.86 578.40 L 347.40 576.77 L 350.66 573.79 L 352.02 571.61 L 353.21 567.11 L 353.27 566.35 L 353.21 563.03 L 352.89 560.05 L 352.51 556.89 L 352.13 554.18 L 351.04 547.93 L 349.96 543.15 L 348.76 539.24 L 346.64 534.25 L 345.83 532.51 L 342.79 526.04 L 340.94 522.08 L 337.63 514.80 L 336.43 512.09 L 331.76 499.76 L 329.21 490.96 L 327.52 483.73 L 326.87 472.76 L 327.85 464.83 L 329.26 457.55 L 331.65 449.13 L 337.19 437.62 L 344.36 426.92 L 349.03 421.81 L 353.70 417.63 L 358.65 413.72 L 373.15 404.16 L 383.52 398.62 L 390.69 394.93 L 397.10 391.51 L 406.33 386.45 L 415.02 380.43 L 416.98 378.91 L 430.12 368.86 L 438.38 361.09 L 445.06 350.77 L 449.24 343.22 L 453.81 335.29 L 456.74 330.18 L 465.32 318.13 L 473.52 310.52 L 488.35 302.97 L 496.77 297.98 L 503.61 290.21 L 508.17 282.12 L 510.46 276.25 L 512.47 268.27 L 513.99 261.97 L 516.65 251.27 L 518.93 245.45 L 524.20 235.84 L 526.53 232.69 L 537.94 221.94 L 550.70 213.84 L 560.75 209.61 L 570.31 207.54 L 581.88 207.98 L 591.71 210.53 L 599.64 213.62 L 605.83 216.39 L 615.66 221.77 L 618.22 223.18 L 635.49 229.38 L 643.91 230.63 L 649.88 230.08 L 657.59 226.77 L 664.44 222.53 L 671.55 217.37 L 676.06 212.97 L 680.30 207.92 L 685.46 201.19 L 688.83 197.38 L 692.25 193.58 L 697.52 187.93 L 703.54 183.43 L 713.59 179.73 L 722.07 179.84 L 723.97 180.11 L 733.04 183.43 L 738.42 187.01 L 744.23 191.90 L 744.93 192.61 L 751.78 199.56 L 756.07 202.00 L 762.53 203.96 L 769.48 204.45 L 773.01 204.23 L 779.64 203.58 L 790.12 202.22 L 796.59 200.86 L 802.89 199.23 L 811.96 196.90 L 822.01 194.29 L 837.76 189.56 L 843.89 187.01 L 850.74 183.91 L 862.42 178.27 L 871.05 172.45 L 878.06 165.77 L 883.60 160.07 L 891.53 151.05 L 895.11 146.65 L 899.68 140.90 L 910.48 127.43 L 917.27 118.95 L 923.14 111.73 L 929.60 103.96 L 934.44 98.04 L 938.78 92.77 L 945.14 84.79 L 949.37 79.36 L 956.43 70.72 L 961.43 64.86 L 968.98 55.68 L 973.65 50.41 L 979.41 43.84 L 984.08 38.19 L 986.58 34.66 L 989.95 28.41 L 990.60 27.00 L 992.07 22.82 L 992.50 18.31 L 992.01 15.70 L 990.82 13.26 L 988.97 11.25 L 986.74 9.73 L 983.54 8.42 L 981.09 7.83 L 979.14 7.61 L 977.13 7.50 L 974.03 7.61 L 970.12 7.99 L 967.19 8.42 L 965.61 8.69 L 962.03 9.40 L 955.08 11.36 L 949.32 13.26 L 945.30 14.72 L 936.39 18.04 L 932.75 19.34 L 924.55 22.33 L 918.85 24.45 L 908.58 28.09 L 892.56 33.73 L 885.88 36.07 L 874.91 39.82 L 867.90 42.15 L 861.44 44.33 L 854.92 46.44 L 844.49 49.54 L 832.33 53.02 L 824.56 55.24 L 817.55 57.20 L 810.49 59.15 L 793.44 63.77 L 786.10 65.67 L 777.90 67.79 L 760.41 72.24 L 750.26 74.74 L 736.51 78.06 L 730.43 79.47 L 723.42 81.10 L 712.83 83.49 L 696.70 87.07 L 684.97 89.62 L 679.54 90.76 L 666.72 93.37 L 656.45 95.44 L 649.07 96.90 L 635.98 99.40 L 622.89 101.79 L 603.06 105.32 L 595.46 106.57 L 584.05 108.53 L 573.52 110.26 L 564.88 111.62 L 549.45 113.69 L 539.73 114.83 L 525.12 116.46 L 505.57 118.52 L 495.79 119.50 L 485.96 120.47 L 471.13 121.89 L 461.30 122.81 L 447.12 124.22 L 442.24 124.71 L 393.73 129.44 L 381.78 130.74 L 374.99 132.48 L 370.32 135.03 L 367.17 137.31 L 365.22 139.38 L 364.02 141.39 L 363.05 144.32 L 362.94 151.11 L 364.57 156.27 L 366.25 159.74 L 367.77 162.41 L 371.14 167.46 L 375.16 172.18 L 378.80 175.98 L 380.81 177.94 L 388.03 184.84 L 391.18 187.77 L 398.13 194.45 L 405.74 202.27 L 411.39 209.39 L 414.48 214.17 L 417.90 221.72 L 419.21 228.62 L 419.32 232.47 L 418.99 235.73 L 417.14 241.27 L 415.40 244.20 L 413.18 247.03 L 410.84 249.15 L 408.29 250.67 L 405.03 251.59 L 401.17 252.03 L 396.83 252.13 L 393.79 252.08 L 388.74 251.37 L 382.65 248.93 L 378.14 246.32 L 372.44 241.16 L 365.98 233.78 L 362.88 228.56 L 358.54 220.52 L 354.41 212.59 L 350.99 206.73 L 346.59 201.30 L 343.98 198.47 L 337.68 192.44 L 333.99 189.62 L 329.48 186.96 L 323.56 184.73 L 317.64 184.02 L 314.16 184.35 L 307.75 186.41 L 303.03 189.94 L 300.47 193.85 L 299.82 197.22 L 300.15 200.54 L 300.58 202.76 L 302.92 208.74 L 304.77 212.05 L 306.18 214.01 L 308.84 217.86 L 314.98 226.12 L 321.22 234.16 L 325.79 239.70 L 328.72 243.23 L 333.77 249.91 L 335.51 252.46 L 339.42 258.98 L 342.08 264.19 L 344.85 272.07 L 347.40 282.12 L 348.11 286.19 L 348.71 294.72 L 348.11 306.83 L 345.18 318.29 L 339.96 329.97 L 330.18 342.41 L 321.93 348.71 L 316.17 351.53 L 305.69 356.42 L 295.26 359.73 L 290.75 360.76 L 278.91 361.36 L 266.85 360.17 L 256.53 358.16 L 239.80 351.80 L 226.99 344.25 L 217.75 336.49 L 208.08 324.54 L 202.49 316.39 L 198.74 309.22 L 194.51 301.78 L 190.22 294.45 L 182.94 282.93 L 174.74 272.83 L 168.05 265.98 L 161.97 261.20 L 154.96 257.08 L 149.53 254.85 L 138.67 253.22 L 128.51 254.14 L 117.49 257.35 L 110.32 260.66 L 102.06 264.68 L 98.21 266.47 L 87.72 271.36 L 80.39 274.78 L 73.55 277.83 L 71.48 278.69 L 63.72 281.90 L 54.43 285.59 L 45.03 289.45 L 37.21 292.71 L 30.26 295.75 L 24.28 298.68 L 18.20 302.54 L 14.78 305.42 L 11.19 309.44 L 8.21 314.92 L 7.50 321.33 L 8.04 324.05 L 8.53 325.68 L 10.05 328.99 L 11.41 331.16 L 14.62 335.45 L 17.11 338.39 L 17.77 339.04 L 21.78 342.79 L 27.00 346.86 L 33.73 351.64 L 36.78 353.65 L 41.34 356.53 L 46.61 359.79 L 51.11 362.61 L 55.68 365.49 L 66.27 372.50 Z" fill="none" stroke="black" stroke-width="15"/>
</svg>
