<svg xmlns="http://www.w3.org/2000/svg" width="1000.00" height="666.41" viewBox="0 0 1000.00 666.41">
  <path d="M 880.79 198.42 L 895.61 193.07 L 899.70 191.60 L 918.66 184.79 L 923.62 183.04 L 936.81 178.36 L 945.34 175.16 L 956.92 170.86 L 962.15 169.21 L 969.27 167.16 L 976.26 164.86 L 979.51 163.44 L 983.22 161.30 L 985.41 159.68 L 987.04 158.09 L 990.72 152.91 L 992.15 148.73 L 992.50 144.82 L 992.41 143.83 L 991.94 140.35 L 990.15 134.27 L 987.86 128.22 L 986.41 124.59 L 983.94 118.10 L 982.47 114.05 L 980.97 109.77 L 978.85 103.86 L 976.97 98.76 L 974.74 93.04 L 971.61 84.98 L 968.36 76.63 L 965.73 69.76 L 962.56 61.46 L 959.56 53.64 L 957.63 48.54 L 955.33 42.53 L 951.39 32.13 L 948.51 24.60 L 946.91 20.44 L 944.75 15.19 L 943.35 12.50 L 940.75 9.47 L 937.66 7.86 L 935.34 7.50 L 932.72 7.60 L 929.28 8.16 L 925.53 9.09 L 920.26 10.68 L 916.89 11.81 L 911.75 13.55 L 906.85 15.17 L 901.48 16.85 L 897.49 18.09 L 891.46 19.92 L 889.03 20.68 L 879.86 23.52 L 872.92 25.73 L 865.08 28.17 L 860.48 29.61 L 853.39 31.86 L 848.55 33.38 L 841.75 35.50 L 836.10 37.31 L 829.73 39.36 L 817.99 43.09 L 805.92 46.85 L 800.50 48.62 L 791.46 51.56 L 777.46 56.48 L 766.83 60.41 L 760.40 62.83 L 751.72 66.07 L 743.72 69.01 L 733.42 72.82 L 723.74 76.43 L 710.97 81.18 L 699.53 85.39 L 690.38 88.79 L 681.14 92.19 L 673.36 95.10 L 666.40 97.72 L 654.72 102.16 L 644.51 106.11 L 599.82 123.26 L 594.62 125.23 L 585.22 128.85 L 580.50 130.66 L 570.43 134.62 L 568.52 135.45 L 564.35 137.48 L 562.95 138.34 L 560.22 140.49 L 557.46 144.97 L 557.25 148.00 L 557.48 149.83 L 558.23 152.58 L 559.50 155.92 L 561.12 159.74 L 562.80 163.43 L 564.71 168.02 L 566.17 172.25 L 567.87 178.23 L 568.92 182.30 L 570.05 186.57 L 571.96 192.89 L 574.61 200.27 L 576.63 205.42 L 580.11 213.97 L 581.72 217.98 L 584.06 224.23 L 585.07 227.32 L 586.24 231.68 L 586.95 237.70 L 586.67 240.39 L 586.17 241.96 L 583.34 246.02 L 579.90 248.36 L 577.07 249.71 L 571.87 251.72 L 566.45 253.50 L 562.98 254.53 L 560.37 255.33 L 554.38 257.30 L 550.18 258.81 L 542.98 261.57 L 540.17 262.64 L 533.83 265.01 L 529.26 266.60 L 521.35 269.50 L 517.10 271.15 L 512.80 273.03 L 503.54 277.54 L 498.54 280.18 L 491.86 283.75 L 485.70 287.08 L 483.11 288.39 L 472.12 293.75 L 467.71 295.85 L 459.09 300.68 L 456.52 302.47 L 453.99 304.53 L 451.67 306.84 L 449.66 309.54 L 448.41 311.90 L 447.74 313.92 L 447.41 316.71 L 447.69 319.48 L 448.08 321.00 L 449.68 325.10 L 450.65 327.21 L 451.68 329.79 L 452.60 332.69 L 452.84 334.33 L 452.59 337.45 L 451.85 339.10 L 450.54 340.90 L 448.62 342.67 L 446.19 344.45 L 443.00 346.44 L 440.88 347.64 L 437.37 349.55 L 431.69 352.72 L 427.39 355.39 L 422.98 358.38 L 418.80 361.39 L 408.90 368.39 L 405.80 370.47 L 401.25 373.55 L 393.25 378.93 L 384.38 384.96 L 375.17 391.26 L 367.23 396.64 L 364.52 398.46 L 355.79 404.45 L 346.63 410.75 L 339.26 415.64 L 334.42 418.89 L 326.62 424.19 L 322.73 426.97 L 319.28 429.50 L 316.22 431.73 L 314.04 433.25 L 310.12 435.75 L 308.34 436.73 L 306.14 437.69 L 303.25 438.38 L 302.83 438.41 L 298.95 437.46 L 297.66 436.36 L 296.38 434.80 L 293.85 429.71 L 293.07 427.57 L 292.27 425.05 L 291.64 422.82 L 290.89 420.16 L 290.11 417.22 L 288.95 412.54 L 288.07 408.84 L 286.73 403.21 L 284.43 393.65 L 283.27 389.01 L 282.07 384.18 L 280.29 377.08 L 277.99 367.51 L 276.46 361.08 L 275.14 355.87 L 273.96 351.60 L 272.77 349.39 L 270.93 347.98 L 267.56 346.17 L 266.33 345.59 L 259.57 342.57 L 253.97 340.78 L 250.18 339.98 L 246.42 339.45 L 242.61 338.97 L 239.50 338.53 L 236.77 338.01 L 235.76 337.77 L 230.39 335.81 L 228.30 334.58 L 226.34 332.89 L 223.73 328.17 L 223.32 324.55 L 223.39 321.42 L 223.43 318.81 L 223.31 316.65 L 222.47 313.99 L 220.93 312.13 L 215.11 309.91 L 211.57 309.63 L 204.65 309.74 L 199.43 310.26 L 195.24 310.93 L 193.63 311.22 L 190.41 312.03 L 182.24 314.54 L 177.90 316.28 L 172.98 318.27 L 165.35 321.18 L 158.21 323.71 L 152.92 325.58 L 147.58 327.68 L 139.97 330.98 L 134.51 333.50 L 129.44 335.80 L 123.07 338.60 L 110.50 343.97 L 104.47 346.69 L 99.58 349.00 L 94.11 351.76 L 87.96 354.89 L 75.14 361.51 L 62.29 367.66 L 57.78 369.90 L 53.58 372.35 L 45.21 380.51 L 38.43 393.10 L 35.36 400.74 L 33.51 405.69 L 29.11 418.45 L 24.32 431.24 L 21.30 439.08 L 17.77 448.43 L 14.48 458.58 L 12.70 465.78 L 11.27 474.26 L 10.57 480.49 L 10.18 491.59 L 10.22 497.95 L 10.36 505.11 L 10.58 516.99 L 10.64 520.17 L 10.95 529.49 L 11.03 540.47 L 10.29 549.22 L 8.68 560.21 L 8.46 561.84 L 7.82 566.81 L 7.65 569.32 L 7.50 573.01 L 7.73 575.77 L 8.86 579.11 L 10.53 581.11 L 12.29 582.42 L 14.79 583.81 L 18.78 585.98 L 21.42 587.48 L 26.72 590.65 L 29.94 592.55 L 35.51 595.83 L 39.37 598.04 L 42.59 599.90 L 50.77 604.48 L 60.57 610.05 L 68.41 614.71 L 73.39 617.82 L 82.11 623.51 L 89.52 628.39 L 97.16 633.23 L 110.31 640.93 L 122.07 648.46 L 125.24 650.50 L 128.45 652.49 L 135.41 656.12 L 137.79 657.14 L 143.91 658.91 L 150.88 658.90 L 156.29 656.33 L 158.50 654.25 L 163.08 648.09 L 167.92 639.65 L 170.59 634.93 L 173.59 629.57 L 175.59 626.12 L 179.73 618.53 L 182.62 613.26 L 185.10 608.81 L 190.17 600.29 L 192.81 596.22 L 197.76 589.15 L 202.73 582.68 L 209.05 575.34 L 213.20 571.12 L 217.62 567.05 L 225.53 560.50 L 230.45 556.69 L 241.02 548.51 L 246.00 544.47 L 253.59 537.86 L 259.31 532.22 L 261.43 530.13 L 270.59 522.06 L 281.66 512.41 L 286.57 506.17 L 290.64 498.95 L 294.58 489.81 L 299.17 475.28 L 300.92 468.64 L 303.17 460.53 L 306.82 450.68 L 312.73 441.31 L 322.41 432.19 L 323.68 431.23 L 334.67 423.91 L 342.31 419.07 L 350.01 413.91 L 362.82 405.00 L 370.57 399.66 L 378.43 394.32 L 386.96 388.51 L 394.86 383.08 L 402.81 377.70 L 412.79 370.93 L 416.09 368.63 L 426.66 361.24 L 439.70 353.32 L 444.78 350.78 L 460.83 344.24 L 477.91 338.50 L 490.23 334.33 L 495.66 332.47 L 508.80 327.92 L 521.18 323.61 L 529.70 320.65 L 541.32 316.54 L 557.70 310.67 L 569.32 306.55 L 576.32 304.12 L 584.08 301.34 L 591.09 298.81 L 603.48 294.28 L 612.81 290.89 L 623.01 287.17 L 631.68 284.07 L 638.02 281.78 L 647.50 278.31 L 653.88 276.03 L 668.22 270.79 L 714.10 254.18 L 728.00 249.44 L 729.61 248.91 L 744.54 244.23 L 755.32 240.87 L 766.92 237.22 L 775.19 234.57 L 791.01 229.60 L 808.50 224.12 L 815.06 221.94 L 831.54 216.07 L 842.17 212.14 L 852.89 208.31 L 858.65 206.23 L 865.27 203.86 Z" fill="none" stroke="black" stroke-width="15"/>
</svg>
