<svg xmlns="http://www.w3.org/2000/svg" width="1000.00" height="311.33" viewBox="0 0 1000.00 311.33">
  <path d="M 713.76 298.62 L 701.44 298.73 L 686.55 298.87 L 672.80 299.05 L 655.22 299.20 L 642.57 299.35 L 632.41 299.45 L 618.40 299.63 L 600.50 299.81 L 582.43 300.02 L 570.80 300.12 L 548.85 300.34 L 541.11 300.43 L 517.12 300.32 L 505.43 300.20 L 484.57 299.97 L 470.26 299.82 L 457.22 299.62 L 439.04 299.38 L 410.34 298.95 L 384.16 298.54 L 364.57 298.26 L 359.35 298.10 L 343.04 297.94 L 331.29 297.86 L 310.24 298.27 L 297.09 298.84 L 294.49 298.97 L 277.42 299.91 L 252.63 301.63 L 230.45 303.12 L 216.23 303.77 L 201.20 303.83 L 191.99 303.40 L 177.51 301.79 L 171.20 300.61 L 155.82 295.35 L 152.80 293.76 L 146.98 289.47 L 138.74 277.84 L 135.46 266.80 L 131.69 242.30 L 127.61 231.08 L 122.71 224.21 L 115.99 218.00 L 113.32 216.01 L 103.57 210.21 L 84.76 202.06 L 76.27 198.74 L 68.61 195.48 L 61.71 192.33 L 54.10 188.35 L 39.50 178.94 L 31.40 171.81 L 21.43 159.39 L 12.65 141.87 L 10.38 134.77 L 7.50 117.66 L 7.65 105.34 L 9.70 94.22 L 16.21 77.69 L 18.25 74.02 L 30.27 57.98 L 38.78 49.86 L 47.22 43.25 L 58.88 35.59 L 78.20 25.56 L 92.32 19.68 L 97.46 17.73 L 107.88 14.16 L 134.95 8.46 L 145.13 7.74 L 154.21 7.57 L 179.32 8.33 L 191.95 8.97 L 210.33 8.73 L 217.33 8.43 L 238.31 7.63 L 250.79 7.50 L 267.17 7.78 L 274.22 7.96 L 297.96 9.28 L 306.08 10.59 L 318.78 14.39 L 329.23 20.60 L 336.77 28.61 L 340.91 36.06 L 343.24 43.39 L 344.35 53.50 L 343.70 60.77 L 343.09 62.90 L 340.00 72.96 L 336.63 80.18 L 327.30 93.17 L 323.96 96.55 L 312.89 105.13 L 299.10 111.92 L 290.68 114.44 L 278.24 116.62 L 266.18 117.00 L 248.93 116.33 L 241.13 115.94 L 230.34 115.32 L 225.30 115.04 L 209.21 114.14 L 201.05 113.72 L 188.74 113.05 L 176.51 112.50 L 167.08 112.38 L 158.73 112.61 L 155.46 112.91 L 146.78 113.95 L 133.08 118.08 L 128.66 120.61 L 124.19 124.55 L 121.57 127.98 L 118.92 134.04 L 118.08 140.48 L 118.62 145.06 L 120.59 150.89 L 126.89 160.32 L 130.09 163.52 L 137.18 169.23 L 142.68 172.77 L 149.23 176.57 L 155.64 180.04 L 165.01 185.13 L 171.98 188.92 L 185.57 196.91 L 197.97 205.06 L 210.77 213.82 L 215.47 216.92 L 225.19 222.82 L 233.75 227.32 L 247.36 233.21 L 256.92 236.45 L 259.83 237.33 L 268.81 239.56 L 282.03 241.89 L 292.36 242.99 L 306.22 243.78 L 324.33 244.32 L 335.58 244.55 L 348.99 244.25 L 357.23 242.54 L 361.57 240.94 L 367.02 238.26 L 378.40 230.44 L 383.51 225.22 L 389.41 212.28 L 390.56 203.91 L 391.00 191.92 L 391.77 183.63 L 394.04 172.71 L 399.31 159.75 L 407.89 145.34 L 409.37 143.08 L 414.30 135.46 L 421.13 124.35 L 425.57 117.05 L 431.82 106.92 L 435.97 100.24 L 444.96 85.65 L 455.73 68.08 L 471.94 47.94 L 476.68 43.91 L 487.37 36.88 L 504.99 28.91 L 507.98 27.91 L 519.30 25.07 L 527.71 23.86 L 550.22 25.70 L 559.13 29.28 L 573.27 38.11 L 584.02 45.86 L 593.90 52.53 L 599.50 56.09 L 618.33 67.87 L 628.00 73.81 L 642.58 82.79 L 647.51 85.84 L 657.39 91.98 L 671.34 100.52 L 682.50 107.30 L 695.49 114.90 L 710.19 123.12 L 733.66 136.04 L 749.74 144.92 L 752.99 146.71 L 779.92 161.63 L 799.66 172.82 L 813.28 181.39 L 821.50 186.97 L 833.48 195.40 L 848.45 205.52 L 853.14 208.19 L 858.77 210.86 L 865.26 212.98 L 872.00 213.62 L 876.42 213.09 L 882.03 211.18 L 886.64 208.27 L 894.30 199.66 L 897.62 193.43 L 898.68 190.66 L 900.42 183.99 L 901.02 179.44 L 900.81 173.25 L 899.54 166.88 L 898.90 164.70 L 895.63 156.60 L 892.98 151.73 L 887.04 143.11 L 880.85 136.38 L 867.71 126.28 L 854.01 119.33 L 845.46 115.78 L 830.44 109.33 L 824.03 105.60 L 814.78 98.70 L 806.50 89.95 L 803.83 86.23 L 799.04 76.86 L 798.46 75.16 L 797.01 66.13 L 797.42 61.01 L 800.72 51.68 L 808.13 42.01 L 814.23 37.27 L 823.56 32.68 L 828.74 31.05 L 839.35 29.36 L 855.69 30.11 L 862.14 31.37 L 873.17 34.61 L 879.21 36.58 L 886.16 39.00 L 898.20 43.14 L 901.52 44.10 L 910.01 46.65 L 925.72 51.35 L 937.37 55.14 L 944.57 57.83 L 963.79 68.74 L 976.39 82.40 L 983.23 95.20 L 988.95 114.02 L 990.68 124.42 L 991.99 141.25 L 992.17 147.54 L 992.28 157.18 L 992.31 167.90 L 992.39 179.90 L 992.50 190.74 L 992.41 211.69 L 991.50 227.10 L 989.87 236.99 L 987.49 246.68 L 984.63 254.69 L 979.42 264.14 L 965.34 279.70 L 947.77 290.67 L 944.72 291.97 L 921.39 297.41 L 900.31 298.45 L 883.72 298.39 L 874.85 298.34 L 864.81 298.36 L 849.11 298.33 L 842.27 298.35 L 830.93 298.36 L 802.46 298.30 L 789.86 298.24 L 782.99 298.20 L 757.49 298.30 L 743.50 298.37 Z" fill="none" stroke="black" stroke-width="15"/>
</svg>
