<svg xmlns="http://www.w3.org/2000/svg" width="940.68" height="1000.00" viewBox="0 0 940.68 1000.00">
  <path d="M 624.58 982.39 L 612.18 982.60 L 598.13 982.74 L 583.86 982.93 L 563.04 983.20 L 548.48 983.36 L 527.30 983.52 L 504.32 983.75 L 481.12 984.02 L 461.10 984.14 L 442.65 984.40 L 422.47 984.65 L 407.20 984.75 L 383.43 984.97 L 359.72 985.27 L 342.86 985.38 L 329.17 985.63 L 296.37 986.14 L 273.78 986.83 L 259.77 987.33 L 233.57 988.13 L 207.29 989.00 L 193.28 989.50 L 182.74 989.87 L 161.64 990.76 L 144.02 991.38 L 127.70 991.97 L 102.04 992.46 L 90.16 992.50 L 76.86 992.27 L 59.90 991.15 L 18.78 977.33 L 9.81 966.32 L 8.74 963.78 L 7.50 955.68 L 8.54 948.72 L 9.34 946.20 L 12.43 939.63 L 16.79 933.46 L 20.06 929.79 L 24.56 925.22 L 29.62 920.84 L 36.58 915.40 L 44.48 909.83 L 53.03 904.24 L 61.01 899.40 L 70.46 894.25 L 85.30 886.69 L 97.52 881.21 L 106.02 877.78 L 122.96 871.77 L 138.47 867.23 L 149.72 864.54 L 166.40 861.54 L 174.48 860.45 L 193.57 858.73 L 204.72 857.98 L 218.87 857.49 L 246.46 857.24 L 256.74 857.35 L 282.19 857.70 L 308.13 858.32 L 320.55 858.61 L 348.81 859.00 L 374.61 858.66 L 390.25 857.58 L 400.22 856.37 L 411.65 854.06 L 426.32 849.29 L 439.77 841.19 L 441.71 839.56 L 451.92 825.69 L 454.59 818.30 L 455.68 811.55 L 455.47 803.26 L 454.32 796.68 L 447.82 782.14 L 441.87 774.42 L 434.95 767.92 L 426.70 761.87 L 417.85 756.85 L 408.39 752.35 L 406.64 751.69 L 397.11 747.91 L 378.47 741.31 L 367.95 737.29 L 358.19 732.91 L 349.64 728.56 L 341.31 723.37 L 330.22 715.20 L 318.12 703.78 L 307.48 690.47 L 305.39 687.19 L 293.26 658.85 L 290.69 647.90 L 287.08 629.87 L 284.24 614.65 L 279.97 586.06 L 274.75 558.54 L 270.74 538.61 L 266.55 517.37 L 261.21 490.34 L 259.41 481.25 L 255.76 463.01 L 249.43 430.86 L 245.86 412.40 L 240.74 386.11 L 236.00 356.47 L 234.51 340.51 L 232.50 310.82 L 231.80 293.41 L 231.09 279.31 L 226.18 249.80 L 223.05 240.38 L 217.13 227.34 L 199.37 204.12 L 181.39 189.95 L 175.26 185.96 L 160.26 177.23 L 139.94 165.95 L 127.38 158.88 L 100.54 141.56 L 84.52 127.99 L 75.88 118.16 L 68.09 106.04 L 61.03 84.69 L 60.32 73.90 L 62.85 58.14 L 69.68 44.20 L 78.99 33.21 L 96.58 20.57 L 118.54 12.34 L 133.80 9.07 L 148.97 7.59 L 174.32 7.50 L 186.72 8.08 L 213.48 10.78 L 231.91 13.19 L 246.71 15.20 L 264.41 17.69 L 267.11 18.07 L 286.03 20.73 L 313.61 24.73 L 320.84 25.93 L 337.53 30.20 L 344.61 33.27 L 355.80 41.09 L 359.79 45.68 L 361.86 49.10 L 364.04 53.90 L 367.13 65.47 L 368.41 71.41 L 370.04 77.46 L 375.92 89.20 L 385.62 100.92 L 395.52 110.35 L 410.44 120.87 L 425.08 130.43 L 439.15 139.94 L 450.24 148.11 L 464.66 158.51 L 472.70 163.68 L 484.02 169.28 L 506.64 174.78 L 516.98 175.11 L 533.71 171.39 L 536.55 170.20 L 556.54 158.20 L 575.34 144.80 L 592.43 135.50 L 602.32 132.62 L 614.89 131.35 L 624.86 131.71 L 636.22 133.57 L 645.85 137.01 L 653.28 140.97 L 659.58 145.48 L 668.93 154.57 L 677.76 166.36 L 682.72 174.64 L 690.40 189.78 L 700.65 212.42 L 707.30 226.96 L 713.79 239.12 L 719.21 247.94 L 729.95 262.63 L 736.65 269.98 L 750.85 284.54 L 766.08 296.39 L 779.04 304.57 L 794.01 312.00 L 821.66 320.18 L 846.23 325.64 L 853.19 327.62 L 880.01 338.60 L 891.15 345.41 L 901.85 353.90 L 921.50 378.58 L 931.14 405.05 L 933.07 419.98 L 933.18 436.83 L 932.44 449.36 L 930.67 470.44 L 929.68 481.73 L 929.08 490.32 L 928.09 503.19 L 926.76 520.85 L 925.70 535.51 L 924.03 557.83 L 923.39 566.84 L 921.11 600.26 L 919.86 618.65 L 919.02 634.05 L 918.23 649.67 L 917.31 668.45 L 916.87 684.18 L 916.59 701.36 L 916.60 714.32 L 916.60 723.46 L 916.56 732.89 L 914.10 756.14 L 911.97 764.01 L 908.57 771.63 L 904.04 778.08 L 896.60 784.19 L 889.55 787.46 L 884.24 788.87 L 869.26 789.79 L 859.47 789.00 L 823.96 782.66 L 814.19 780.80 L 801.71 778.55 L 791.92 776.98 L 783.40 775.65 L 766.04 773.27 L 747.88 771.04 L 740.53 770.32 L 719.74 769.37 L 710.04 769.96 L 695.21 773.27 L 686.52 777.11 L 675.11 785.76 L 669.96 791.93 L 665.94 799.28 L 663.13 809.98 L 663.12 817.54 L 666.77 830.09 L 669.63 835.24 L 677.05 843.44 L 689.73 850.67 L 705.17 854.40 L 718.77 855.30 L 728.86 855.18 L 735.58 854.83 L 747.54 853.93 L 755.87 853.29 L 767.68 852.38 L 778.77 851.55 L 789.05 850.87 L 810.55 850.30 L 828.81 851.40 L 839.73 853.36 L 859.96 861.53 L 869.17 868.10 L 882.64 883.67 L 887.91 893.42 L 892.03 908.75 L 892.52 916.43 L 890.78 930.46 L 889.36 935.23 L 886.71 941.69 L 881.50 950.95 L 874.69 959.71 L 867.91 966.46 L 861.66 971.31 L 850.15 977.79 L 831.43 983.57 L 806.01 986.10 L 790.38 986.24 L 776.64 986.12 L 761.27 985.78 L 754.81 985.51 L 736.31 984.75 L 710.43 983.57 L 696.36 983.05 L 670.87 982.34 L 657.64 982.19 Z" fill="none" stroke="black" stroke-width="15"/>
</svg>
