<svg xmlns="http://www.w3.org/2000/svg" width="1000.00" height="520.51" viewBox="0 0 1000.00 520.51">
  <path d="M 272.08 453.31 L 286.50 453.01 L 296.47 452.82 L 307.51 452.57 L 309.39 452.53 L 326.16 452.36 L 333.66 452.41 L 342.17 452.44 L 349.78 452.44 L 357.39 452.43 L 365.95 452.52 L 382.09 453.62 L 393.54 455.46 L 435.32 466.24 L 443.86 468.63 L 453.41 471.37 L 466.78 475.00 L 478.31 477.76 L 486.08 479.32 L 497.91 481.07 L 505.86 481.88 L 514.89 482.52 L 539.02 483.47 L 549.08 483.66 L 564.13 483.54 L 587.32 482.37 L 604.45 481.04 L 614.50 480.11 L 623.47 479.24 L 640.57 477.48 L 653.58 476.12 L 659.60 475.41 L 669.56 474.05 L 677.38 472.55 L 697.17 467.30 L 706.74 464.63 L 715.72 462.16 L 720.70 460.84 L 722.70 460.21 L 726.94 458.43 L 731.63 454.63 L 735.41 447.42 L 737.89 439.47 L 739.24 435.99 L 744.07 428.23 L 749.54 423.28 L 755.46 419.36 L 761.31 416.13 L 766.71 413.22 L 771.13 410.91 L 777.35 407.59 L 791.29 399.66 L 800.03 393.17 L 804.76 388.19 L 809.51 381.12 L 814.12 371.75 L 817.62 363.46 L 820.78 355.86 L 826.34 342.40 L 829.62 334.47 L 832.66 327.19 L 835.41 320.54 L 839.44 310.87 L 843.53 301.05 L 847.33 291.92 L 851.19 282.63 L 854.12 275.60 L 861.01 259.08 L 864.29 251.11 L 869.67 238.33 L 875.60 224.72 L 880.06 215.12 L 887.13 199.78 L 892.54 184.60 L 892.93 167.42 L 890.82 155.51 L 889.17 147.63 L 887.95 141.16 L 887.61 130.86 L 889.64 125.09 L 893.28 120.40 L 896.32 117.67 L 903.27 112.07 L 906.96 109.15 L 912.14 105.10 L 917.48 100.89 L 922.44 96.99 L 925.96 94.17 L 930.09 90.94 L 936.53 85.97 L 942.88 80.73 L 947.24 76.81 L 952.50 71.90 L 957.32 67.46 L 961.69 63.44 L 970.54 55.44 L 977.67 49.21 L 981.93 45.24 L 985.21 41.87 L 988.13 38.17 L 990.40 34.44 L 991.33 32.23 L 992.50 24.88 L 991.39 19.86 L 989.78 16.91 L 987.00 13.76 L 984.81 12.02 L 980.34 9.56 L 977.22 8.54 L 969.75 7.53 L 965.84 7.50 L 959.35 7.92 L 954.34 8.54 L 951.92 8.84 L 947.45 9.48 L 940.07 10.72 L 935.11 11.57 L 930.00 12.41 L 923.58 13.47 L 915.02 14.78 L 906.79 15.94 L 898.93 17.05 L 897.58 17.22 L 888.11 18.50 L 882.57 19.16 L 871.27 20.48 L 865.52 21.14 L 858.91 21.82 L 851.54 22.58 L 844.82 23.31 L 835.74 24.22 L 822.41 25.36 L 820.10 25.55 L 804.48 26.51 L 785.35 26.69 L 779.73 26.50 L 767.55 25.75 L 756.93 24.63 L 748.77 23.54 L 740.56 22.29 L 698.84 16.12 L 688.05 15.10 L 675.33 15.94 L 666.70 19.23 L 664.35 20.59 L 655.54 28.96 L 650.20 37.67 L 647.05 43.34 L 642.11 52.92 L 639.73 58.19 L 635.99 68.56 L 633.36 81.11 L 632.42 91.10 L 632.50 101.28 L 633.13 110.62 L 634.88 124.98 L 636.79 136.24 L 638.07 142.72 L 640.61 155.88 L 642.51 165.85 L 643.33 170.00 L 646.67 187.74 L 648.62 197.94 L 650.30 209.67 L 650.53 215.20 L 649.21 223.99 L 644.29 236.03 L 639.16 244.90 L 633.55 253.60 L 629.57 258.71 L 625.85 262.44 L 621.95 265.09 L 617.56 266.54 L 611.67 266.55 L 605.30 265.04 L 599.05 263.06 L 594.70 261.83 L 588.69 260.50 L 579.84 259.38 L 573.26 258.99 L 567.00 258.78 L 556.89 258.48 L 550.68 258.31 L 543.72 258.18 L 531.90 257.82 L 518.89 257.47 L 511.93 257.33 L 504.76 257.14 L 493.15 256.79 L 484.96 256.61 L 474.36 256.34 L 469.87 256.29 L 457.49 256.45 L 448.10 256.93 L 439.40 257.43 L 431.41 257.84 L 421.75 258.36 L 408.71 258.98 L 402.16 259.29 L 395.56 259.59 L 378.93 260.35 L 374.64 260.52 L 364.08 260.80 L 355.72 259.38 L 352.53 257.07 L 350.05 254.41 L 345.99 249.66 L 342.82 246.88 L 338.45 244.74 L 335.63 244.21 L 331.38 244.60 L 326.90 245.62 L 322.19 247.07 L 317.03 248.92 L 313.88 250.20 L 308.01 252.78 L 301.31 255.98 L 296.08 258.53 L 286.87 263.03 L 277.06 267.67 L 267.43 271.99 L 258.84 275.55 L 251.89 278.41 L 241.05 283.34 L 228.99 289.93 L 227.73 290.64 L 214.47 299.12 L 208.76 302.99 L 196.73 311.57 L 194.86 312.95 L 180.14 325.08 L 170.06 334.53 L 163.12 341.52 L 161.95 342.71 L 155.62 349.29 L 149.23 355.92 L 141.00 364.42 L 136.22 369.34 L 129.11 376.65 L 123.78 382.19 L 111.11 395.09 L 100.26 405.10 L 90.48 412.21 L 82.83 416.49 L 76.36 419.43 L 61.05 425.11 L 50.15 429.01 L 33.76 435.03 L 26.65 437.72 L 21.54 439.74 L 14.55 443.73 L 10.82 447.62 L 8.40 452.57 L 7.55 456.88 L 7.50 459.98 L 8.31 465.79 L 9.25 469.74 L 9.92 472.12 L 11.50 477.37 L 13.00 481.97 L 15.80 489.20 L 19.45 496.72 L 24.50 503.86 L 29.65 508.21 L 34.34 510.63 L 42.89 512.69 L 48.98 513.01 L 55.59 512.33 L 56.57 512.15 L 65.17 509.51 L 71.04 507.09 L 78.11 504.07 L 84.15 501.55 L 93.55 497.70 L 101.10 494.53 L 107.14 492.06 L 111.43 490.34 L 117.03 488.02 L 132.62 481.71 L 138.70 479.35 L 151.46 474.54 L 163.56 469.93 L 170.08 467.48 L 178.06 464.44 L 186.25 461.56 L 195.40 458.67 L 201.67 457.07 L 210.46 455.34 L 219.39 454.26 L 224.44 453.95 L 234.84 453.73 L 252.78 453.82 Z" fill="none" stroke="black" stroke-width="15"/>
</svg>
