<svg xmlns="http://www.w3.org/2000/svg" width="1000.00" height="439.70" viewBox="0 0 1000.00 439.70">
  <path d="M 779.59 109.57 L 772.36 114.50 L 764.52 119.81 L 756.65 125.13 L 745.91 132.43 L 739.08 137.05 L 732.76 141.31 L 724.75 146.75 L 717.26 151.85 L 712.09 155.36 L 702.25 162.00 L 694.44 166.63 L 691.30 168.32 L 678.47 175.47 L 668.73 180.90 L 663.85 183.66 L 654.21 189.06 L 648.78 192.15 L 641.04 196.73 L 639.61 197.68 L 636.27 200.09 L 632.89 203.03 L 631.11 205.09 L 629.64 207.55 L 629.14 208.90 L 628.87 213.82 L 630.54 217.83 L 631.75 220.30 L 632.79 223.20 L 633.18 227.01 L 632.74 228.70 L 631.19 231.22 L 630.33 232.02 L 628.05 233.50 L 626.14 234.25 L 624.21 234.74 L 622.37 235.12 L 621.54 235.28 L 615.59 236.13 L 611.23 236.55 L 604.44 236.86 L 596.47 237.07 L 592.95 237.20 L 586.41 237.76 L 579.14 238.86 L 572.95 240.33 L 567.48 242.13 L 565.51 242.81 L 560.45 244.67 L 550.08 248.71 L 544.79 250.78 L 538.35 253.30 L 534.11 254.99 L 530.33 256.48 L 522.09 259.68 L 516.37 261.94 L 513.74 262.95 L 503.71 266.91 L 497.83 269.17 L 489.84 272.15 L 484.04 274.07 L 479.41 275.62 L 476.84 276.69 L 475.38 277.49 L 472.14 280.35 L 470.57 283.55 L 469.87 286.45 L 469.30 290.34 L 468.52 295.12 L 468.22 296.46 L 466.56 301.37 L 463.41 306.82 L 460.01 310.91 L 456.04 314.62 L 451.95 317.70 L 448.34 319.86 L 443.57 322.11 L 439.74 323.54 L 432.77 325.36 L 428.33 326.11 L 424.31 326.44 L 415.87 325.86 L 408.55 324.09 L 400.64 321.96 L 391.65 321.55 L 384.56 322.77 L 374.06 326.57 L 363.64 332.17 L 354.46 338.25 L 351.57 341.42 L 348.68 348.18 L 346.74 355.46 L 343.84 359.98 L 339.98 363.35 L 334.31 366.42 L 325.82 369.44 L 315.82 371.98 L 309.11 373.25 L 300.76 374.11 L 293.22 373.66 L 284.20 370.78 L 275.25 364.32 L 270.45 359.32 L 261.42 350.51 L 257.31 348.29 L 252.19 346.76 L 246.23 346.16 L 242.88 346.20 L 234.39 346.82 L 228.43 347.16 L 219.61 347.26 L 212.34 347.10 L 202.15 346.64 L 197.52 346.45 L 187.70 346.65 L 180.68 347.33 L 175.32 348.00 L 165.83 349.22 L 158.63 350.30 L 153.84 351.06 L 148.99 351.88 L 138.69 353.81 L 131.51 355.41 L 118.32 358.93 L 112.27 360.64 L 106.19 362.39 L 96.45 365.29 L 89.73 367.32 L 84.85 368.82 L 76.87 371.20 L 68.24 373.83 L 60.86 376.06 L 51.10 379.21 L 36.77 384.79 L 26.53 389.48 L 17.91 394.55 L 13.28 398.79 L 10.71 402.23 L 9.30 404.84 L 8.26 407.62 L 7.50 415.99 L 8.19 418.90 L 10.03 422.51 L 12.02 424.93 L 16.45 428.45 L 20.40 430.35 L 24.74 431.60 L 31.49 432.20 L 38.22 431.63 L 42.03 430.92 L 48.52 429.22 L 53.34 427.63 L 58.99 425.27 L 64.93 422.01 L 68.74 419.40 L 73.29 415.46 L 77.33 411.22 L 81.71 406.61 L 87.12 401.39 L 90.87 398.20 L 96.27 394.37 L 103.10 390.53 L 107.77 388.38 L 114.80 385.68 L 127.10 381.78 L 136.35 379.75 L 144.61 378.64 L 149.43 378.35 L 159.10 378.47 L 166.34 379.15 L 174.49 380.48 L 184.99 382.52 L 192.24 383.71 L 200.75 384.59 L 212.67 384.54 L 217.59 384.15 L 228.31 383.45 L 232.04 383.82 L 237.72 385.68 L 240.04 387.08 L 243.99 391.19 L 246.62 396.97 L 248.60 401.30 L 251.38 404.67 L 251.72 404.94 L 258.51 408.54 L 264.74 410.11 L 268.70 410.46 L 273.98 410.41 L 282.39 409.46 L 287.80 408.51 L 295.29 406.84 L 301.60 405.22 L 310.57 402.71 L 318.50 399.98 L 324.23 397.61 L 328.94 395.44 L 335.58 391.97 L 344.35 386.59 L 350.47 382.30 L 355.76 378.33 L 360.57 374.64 L 364.46 371.70 L 373.43 365.24 L 377.80 362.33 L 387.72 356.50 L 392.48 354.05 L 396.89 351.92 L 400.95 350.16 L 408.58 347.15 L 411.59 346.08 L 416.49 344.51 L 424.52 342.19 L 430.75 340.40 L 437.58 338.34 L 448.10 334.57 L 456.08 331.28 L 462.70 328.21 L 468.60 325.08 L 473.79 321.97 L 480.69 317.17 L 492.82 306.75 L 499.11 300.45 L 501.54 297.98 L 508.03 291.86 L 516.61 284.91 L 524.06 279.81 L 528.21 277.27 L 534.96 273.62 L 543.14 269.68 L 550.21 266.65 L 559.34 263.19 L 568.06 260.31 L 573.35 258.71 L 579.97 257.06 L 587.42 255.44 L 593.58 254.30 L 605.24 252.62 L 617.97 251.38 L 627.48 250.39 L 630.32 249.92 L 633.31 249.21 L 637.60 247.59 L 640.95 245.33 L 642.10 244.22 L 644.22 241.64 L 648.13 233.90 L 650.08 229.83 L 651.75 226.05 L 652.55 224.35 L 654.54 220.62 L 658.84 215.04 L 662.62 211.85 L 667.21 209.04 L 671.71 206.97 L 676.26 205.25 L 685.94 202.08 L 694.42 200.13 L 703.22 199.00 L 710.76 198.82 L 715.28 199.19 L 725.02 200.87 L 728.44 201.60 L 737.64 203.65 L 744.56 205.28 L 751.59 206.85 L 762.30 209.11 L 769.54 210.43 L 781.25 211.77 L 793.84 212.03 L 799.56 211.71 L 814.86 209.40 L 827.46 206.06 L 839.87 201.50 L 846.57 198.57 L 852.01 195.99 L 858.03 192.91 L 864.60 189.45 L 871.19 185.95 L 879.03 181.75 L 883.82 179.13 L 890.45 175.42 L 896.36 171.90 L 906.26 165.52 L 913.95 159.61 L 919.76 154.53 L 927.64 146.56 L 936.22 136.28 L 937.09 135.16 L 943.20 126.57 L 947.73 119.39 L 951.93 112.03 L 955.52 105.48 L 956.40 103.96 L 960.06 97.40 L 965.32 87.76 L 968.14 82.11 L 971.13 75.76 L 974.19 68.68 L 976.65 62.89 L 978.84 57.72 L 984.01 45.34 L 986.47 39.51 L 988.32 35.06 L 989.78 31.57 L 991.41 27.65 L 992.41 24.05 L 992.50 20.94 L 992.15 18.74 L 990.10 14.15 L 988.55 12.21 L 986.53 10.46 L 983.32 8.66 L 980.69 7.81 L 976.71 7.50 L 975.73 7.55 L 973.52 7.86 L 969.80 8.95 L 963.73 11.68 L 957.83 14.65 L 953.23 16.95 L 949.36 18.86 L 941.97 22.48 L 936.45 25.04 L 933.22 26.52 L 928.18 28.96 L 922.12 31.89 L 919.02 33.42 L 910.01 37.95 L 901.62 42.18 L 900.67 42.65 L 891.01 47.47 L 887.58 49.23 L 880.60 52.75 L 874.00 56.09 L 863.06 61.47 L 853.39 66.25 L 845.23 70.26 L 834.80 75.66 L 830.97 77.72 L 825.46 80.80 L 819.46 84.31 L 807.47 91.64 L 800.86 95.74 L 794.83 99.57 L 789.35 103.11 L 782.77 107.44 Z" fill="none" stroke="black" stroke-width="15"/>
</svg>
