<svg xmlns="http://www.w3.org/2000/svg" width="1000.00" height="601.77" viewBox="0 0 1000.00 601.77">
  <path d="M 928.58 91.94 L 923.42 87.44 L 917.31 81.93 L 911.85 77.03 L 904.37 70.31 L 895.48 62.38 L 889.27 56.82 L 876.94 45.80 L 866.63 36.56 L 861.68 32.06 L 856.72 27.56 L 852.73 23.92 L 849.09 20.64 L 843.13 15.99 L 837.42 13.11 L 831.36 11.85 L 827.47 11.90 L 825.19 12.25 L 820.29 14.02 L 816.00 16.65 L 811.70 20.69 L 808.82 24.93 L 807.86 26.85 L 806.45 30.49 L 805.74 33.27 L 804.98 38.07 L 805.13 46.71 L 806.95 54.59 L 811.80 64.85 L 815.54 70.46 L 820.85 77.33 L 822.01 78.60 L 829.94 86.73 L 836.46 93.50 L 840.50 98.25 L 846.31 111.29 L 846.97 122.21 L 844.14 134.59 L 842.47 138.98 L 838.78 146.31 L 835.25 151.72 L 827.67 160.10 L 820.64 165.41 L 807.25 171.73 L 799.77 173.60 L 787.85 175.21 L 780.32 175.92 L 769.71 176.78 L 751.01 177.99 L 738.28 178.80 L 728.58 179.31 L 710.39 180.06 L 702.86 180.37 L 694.42 180.72 L 675.57 181.48 L 666.02 181.88 L 649.34 182.49 L 641.36 182.79 L 631.56 183.10 L 621.70 183.45 L 608.21 183.95 L 594.62 184.41 L 579.56 184.91 L 570.87 185.22 L 555.66 185.77 L 535.75 186.48 L 524.99 186.83 L 515.64 187.19 L 504.83 187.54 L 493.51 187.95 L 485.98 188.20 L 465.16 188.96 L 456.67 189.26 L 442.47 189.71 L 436.41 189.97 L 429.74 190.17 L 423.17 190.42 L 414.43 190.73 L 406.59 190.98 L 402.10 191.18 L 395.68 191.23 L 391.79 190.93 L 387.19 190.22 L 381.53 188.91 L 379.26 188.15 L 375.57 186.63 L 371.53 184.36 L 368.44 181.63 L 368.09 181.17 L 366.02 177.84 L 364.70 172.74 L 364.40 167.99 L 364.40 162.53 L 364.45 156.87 L 364.45 150.25 L 364.40 142.82 L 364.30 131.76 L 364.25 128.12 L 364.25 122.71 L 364.20 116.80 L 364.15 110.13 L 364.10 101.23 L 364.00 94.41 L 363.54 88.15 L 362.73 82.89 L 360.05 72.89 L 357.43 65.91 L 352.12 55.25 L 348.63 49.54 L 341.31 39.33 L 336.81 34.38 L 326.50 25.44 L 319.68 20.59 L 309.37 14.88 L 302.15 11.80 L 294.82 9.47 L 289.41 8.26 L 281.28 7.50 L 276.38 7.95 L 271.27 9.32 L 270.72 9.77 L 266.32 11.95 L 263.89 13.87 L 262.53 15.43 L 260.41 19.68 L 259.25 23.27 L 258.29 26.25 L 257.02 28.93 L 254.95 31.70 L 252.83 33.62 L 250.65 35.04 L 246.71 36.45 L 243.68 36.86 L 242.52 36.91 L 236.10 35.65 L 232.31 34.03 L 228.62 32.11 L 223.22 28.98 L 216.24 25.08 L 213.26 23.67 L 207.91 21.75 L 204.87 21.09 L 202.20 20.84 L 197.65 20.99 L 193.35 21.95 L 191.53 22.66 L 188.00 24.83 L 186.28 26.60 L 183.85 31.91 L 183.35 38.73 L 183.50 43.17 L 183.55 44.59 L 183.85 55.96 L 183.90 61.37 L 184.11 68.14 L 184.16 72.23 L 184.31 78.70 L 184.46 85.42 L 184.56 92.39 L 184.61 94.77 L 184.86 104.72 L 185.02 112.40 L 185.17 123.01 L 185.17 129.84 L 185.17 136.10 L 185.12 142.47 L 185.07 151.82 L 185.07 159.90 L 185.02 169.55 L 185.02 175.97 L 184.81 186.63 L 184.21 195.88 L 182.44 207.55 L 181.33 213.87 L 179.31 222.76 L 177.54 228.52 L 174.91 235.85 L 171.07 244.94 L 168.34 250.45 L 159.55 263.89 L 153.79 270.46 L 147.72 276.22 L 137.01 284.41 L 129.89 288.91 L 123.97 292.14 L 115.48 296.23 L 103.76 301.54 L 97.65 304.37 L 90.17 307.81 L 83.85 310.74 L 76.02 314.53 L 68.34 318.62 L 61.01 323.27 L 54.75 328.02 L 45.70 336.30 L 39.18 343.48 L 32.71 351.72 L 27.97 358.99 L 22.00 370.51 L 15.84 388.05 L 13.77 396.18 L 11.14 409.07 L 9.77 416.04 L 8.97 420.39 L 8.41 423.42 L 7.90 426.55 L 7.50 429.99 L 7.50 433.17 L 7.85 435.45 L 10.73 440.80 L 13.82 443.63 L 14.68 444.29 L 19.22 446.61 L 22.51 447.57 L 27.71 448.69 L 31.10 449.49 L 34.58 450.56 L 39.13 452.27 L 45.20 455.05 L 50.70 457.68 L 52.12 458.39 L 58.49 461.47 L 64.65 464.30 L 69.96 466.73 L 79.25 471.22 L 87.54 475.57 L 95.58 480.02 L 105.08 485.42 L 115.74 491.54 L 124.58 496.54 L 131.35 500.23 L 137.26 503.41 L 144.99 507.45 L 151.46 510.84 L 167.33 519.38 L 171.52 521.65 L 187.19 529.84 L 205.83 538.53 L 215.84 542.82 L 218.16 543.79 L 235.55 550.56 L 249.39 555.15 L 256.01 557.07 L 263.54 559.25 L 276.93 563.09 L 292.14 567.43 L 303.21 570.47 L 307.50 571.58 L 314.43 573.35 L 321.35 575.01 L 335.75 578.30 L 350.30 581.18 L 360.51 583.05 L 370.31 584.66 L 378.85 585.93 L 400.08 588.56 L 408.26 589.41 L 416.90 590.17 L 429.74 591.08 L 435.24 591.39 L 446.77 591.89 L 453.69 592.14 L 464.75 592.29 L 472.18 592.35 L 480.52 592.35 L 500.03 592.29 L 515.89 592.19 L 524.28 592.14 L 535.50 592.04 L 548.64 591.94 L 560.86 591.84 L 569.35 591.79 L 577.84 591.69 L 599.67 591.54 L 611.09 591.54 L 624.48 591.59 L 635.45 591.64 L 649.80 591.74 L 666.12 591.84 L 672.99 591.89 L 685.47 591.94 L 694.62 591.99 L 706.19 592.09 L 715.39 592.14 L 723.12 592.19 L 733.23 592.24 L 741.46 592.29 L 752.12 592.35 L 761.32 592.40 L 778.30 592.50 L 790.93 592.65 L 806.50 592.80 L 818.17 592.95 L 819.13 592.95 L 835.70 593.15 L 851.27 593.36 L 865.82 593.51 L 878.40 593.66 L 891.94 593.81 L 889.01 593.81 L 902.05 593.91 L 911.04 594.06 L 917.31 594.11 L 924.38 594.21 L 929.54 594.27 L 935.20 594.27 L 938.63 594.16 L 942.12 593.96 L 944.65 593.71 L 947.17 593.36 L 950.21 592.70 L 954.90 591.13 L 958.39 589.47 L 960.46 588.20 L 963.44 586.03 L 966.22 583.00 L 967.99 580.12 L 969.66 574.31 L 970.11 570.57 L 970.82 566.68 L 973.80 560.11 L 978.25 554.19 L 982.75 548.74 L 985.43 545.15 L 988.76 539.49 L 991.14 532.01 L 991.89 524.68 L 992.20 512.56 L 992.50 503.36 L 992.50 494.26 L 992.20 483.15 L 991.94 473.45 L 991.84 469.81 L 991.64 463.14 L 991.24 445.35 L 990.93 435.30 L 990.78 430.19 L 990.48 418.32 L 990.18 406.24 L 989.87 396.49 L 989.47 383.70 L 989.16 374.91 L 988.91 364.05 L 988.76 355.61 L 988.71 340.20 L 988.81 328.12 L 988.86 319.43 L 989.11 309.78 L 989.22 295.68 L 989.22 285.98 L 989.22 277.94 L 989.11 268.14 L 989.06 258.29 L 988.96 251.11 L 988.76 241.21 L 988.56 231.25 L 988.10 208.41 L 987.75 204.92 L 987.09 192.24 L 986.64 184.46 L 985.93 176.78 L 983.86 164.75 L 978.40 148.38 L 969.61 132.77 L 964.35 125.24 L 957.23 117.00 L 950.10 110.33 L 934.59 97.04 Z" fill="none" stroke="black" stroke-width="15"/>
</svg>
