<svg xmlns="http://www.w3.org/2000/svg" width="1000.00" height="726.99" viewBox="0 0 1000.00 726.99">
  <path d="M 657.18 715.70 L 637.42 715.68 L 617.32 715.65 L 594.59 715.64 L 569.01 715.55 L 553.53 715.54 L 523.61 715.57 L 501.25 715.51 L 488.58 715.49 L 464.72 715.46 L 446.05 715.70 L 429.94 715.87 L 411.14 716.03 L 404.42 716.15 L 389.59 716.24 L 377.43 716.41 L 359.75 716.58 L 346.22 716.69 L 334.00 716.82 L 320.29 716.92 L 290.28 717.26 L 276.31 717.38 L 257.09 717.66 L 235.08 718.23 L 213.07 718.97 L 208.92 719.04 L 192.33 719.46 L 180.07 719.49 L 160.01 718.60 L 146.69 717.69 L 136.88 716.62 L 124.91 714.54 L 117.07 712.29 L 104.75 706.42 L 97.65 701.09 L 93.24 696.72 L 88.24 688.87 L 83.83 675.06 L 83.17 664.72 L 83.96 657.29 L 86.56 648.67 L 92.02 638.49 L 101.19 628.27 L 107.14 623.52 L 120.61 615.16 L 131.89 609.17 L 139.35 605.34 L 151.22 599.24 L 159.83 594.74 L 176.68 585.80 L 178.50 584.89 L 212.52 565.96 L 225.13 555.98 L 231.49 547.35 L 234.24 541.44 L 236.39 533.62 L 237.17 523.39 L 234.54 508.72 L 226.99 494.57 L 218.62 486.16 L 206.89 478.44 L 192.57 470.67 L 176.55 462.49 L 167.14 457.54 L 160.14 453.92 L 144.93 446.02 L 134.05 440.07 L 121.67 432.43 L 114.25 426.56 L 101.77 413.26 L 94.39 402.43 L 86.44 386.48 L 82.19 376.17 L 77.65 364.64 L 74.22 355.04 L 67.06 333.41 L 62.98 321.35 L 57.65 305.89 L 52.39 290.29 L 49.27 281.39 L 46.17 272.32 L 39.19 251.93 L 35.69 241.68 L 30.68 226.74 L 21.17 199.08 L 18.43 190.92 L 10.50 166.41 L 8.06 156.30 L 7.50 147.68 L 9.07 138.23 L 11.82 130.75 L 16.66 122.32 L 24.56 112.80 L 36.29 103.64 L 44.83 99.11 L 62.17 92.45 L 68.76 90.33 L 76.39 88.09 L 90.95 84.70 L 97.84 83.80 L 109.65 83.79 L 128.73 88.50 L 137.35 92.67 L 143.90 97.26 L 157.36 118.28 L 161.29 132.17 L 163.28 140.10 L 166.37 151.87 L 168.77 160.81 L 172.81 175.91 L 175.33 185.26 L 177.12 191.33 L 180.05 200.56 L 185.39 215.86 L 192.01 235.00 L 196.40 246.01 L 201.95 257.31 L 208.01 267.05 L 210.93 270.77 L 214.28 274.20 L 220.17 278.08 L 224.12 279.48 L 228.55 280.01 L 232.40 279.52 L 234.42 278.89 L 240.07 275.64 L 244.75 271.15 L 247.60 266.78 L 249.48 262.92 L 253.03 251.95 L 254.86 241.85 L 256.00 233.48 L 256.75 228.03 L 257.70 220.95 L 259.17 209.61 L 259.79 204.88 L 261.69 189.14 L 262.82 177.79 L 263.58 169.63 L 265.06 146.93 L 265.71 137.23 L 266.45 126.27 L 267.55 114.02 L 268.54 103.73 L 270.41 84.73 L 272.56 65.55 L 274.34 54.29 L 276.47 45.24 L 282.36 31.62 L 286.39 26.07 L 292.69 19.77 L 299.75 14.76 L 311.23 9.67 L 318.46 7.99 L 323.10 7.50 L 334.04 7.97 L 344.02 10.79 L 351.36 14.59 L 353.05 15.79 L 359.88 21.94 L 364.07 27.32 L 367.68 33.43 L 371.82 44.74 L 375.34 60.95 L 381.83 81.42 L 389.42 98.66 L 395.32 109.80 L 401.93 120.90 L 406.20 127.73 L 410.81 134.39 L 425.18 152.33 L 441.04 168.38 L 453.87 182.14 L 456.91 186.45 L 464.97 202.99 L 467.05 211.23 L 466.74 229.94 L 461.29 254.12 L 457.42 267.90 L 454.28 277.35 L 447.33 297.46 L 445.84 301.71 L 441.30 315.90 L 437.85 328.60 L 437.40 331.93 L 437.68 342.32 L 440.46 351.03 L 444.40 358.12 L 449.85 364.55 L 455.96 369.77 L 461.95 373.17 L 468.13 375.12 L 479.36 375.83 L 490.94 374.20 L 496.84 373.02 L 505.97 370.90 L 514.40 368.49 L 519.12 366.91 L 527.93 363.48 L 537.70 359.10 L 546.70 354.56 L 557.46 348.71 L 573.93 338.25 L 580.53 333.60 L 594.28 322.68 L 602.99 315.00 L 618.85 298.87 L 631.26 283.88 L 637.06 275.64 L 646.62 260.12 L 653.85 247.08 L 660.69 233.64 L 665.63 222.99 L 667.56 218.73 L 674.98 201.24 L 681.35 185.79 L 689.14 166.84 L 691.86 160.04 L 702.03 135.24 L 707.45 121.19 L 714.66 101.40 L 721.07 86.84 L 730.04 72.40 L 739.64 61.54 L 742.38 59.13 L 752.28 51.84 L 764.33 45.40 L 778.27 40.45 L 790.34 37.78 L 801.45 36.50 L 815.08 35.75 L 833.59 35.95 L 847.12 36.63 L 858.07 37.54 L 873.51 40.15 L 883.64 43.49 L 892.13 47.58 L 908.67 61.30 L 918.32 74.17 L 929.34 92.96 L 939.59 113.43 L 950.78 136.33 L 959.13 153.29 L 962.79 162.93 L 964.70 178.42 L 963.22 189.15 L 958.11 203.11 L 947.87 218.42 L 943.59 224.09 L 933.19 236.70 L 923.81 247.15 L 917.59 254.11 L 906.63 266.15 L 901.89 271.39 L 887.86 287.23 L 877.05 299.95 L 866.17 312.64 L 862.35 317.16 L 845.82 337.83 L 840.08 345.49 L 833.75 355.19 L 826.97 376.10 L 826.82 387.56 L 830.00 402.97 L 834.48 413.67 L 846.46 434.66 L 852.70 444.06 L 863.44 458.94 L 867.52 464.52 L 872.99 471.84 L 880.50 482.12 L 893.67 500.01 L 901.41 510.51 L 917.85 533.87 L 926.74 546.85 L 932.83 555.91 L 943.04 571.10 L 951.79 584.35 L 965.93 606.01 L 974.43 619.55 L 980.54 629.68 L 988.65 645.98 L 992.02 658.52 L 992.50 664.12 L 991.06 676.35 L 989.13 682.19 L 985.79 689.00 L 981.37 695.56 L 979.00 698.26 L 972.61 704.26 L 957.82 712.33 L 950.84 714.49 L 942.60 715.96 L 928.76 716.95 L 915.37 716.96 L 905.04 716.66 L 889.92 716.32 L 879.24 716.18 L 861.31 716.03 L 842.78 715.99 L 831.18 715.95 L 810.80 715.94 L 796.59 716.02 L 774.30 715.99 L 761.80 715.98 L 746.91 716.03 L 727.19 715.94 L 709.49 715.84 L 695.01 715.77 L 670.12 715.71 Z" fill="none" stroke="black" stroke-width="15"/>
</svg>
