<svg xmlns="http://www.w3.org/2000/svg" width="1000.00" height="601.66" viewBox="0 0 1000.00 601.66">
  <path d="M 927.95 446.13 L 930.88 436.05 L 932.35 430.99 L 937.11 414.61 L 939.64 406.34 L 945.26 387.64 L 948.54 377.14 L 956.52 351.79 L 960.60 338.93 L 964.76 326.04 L 967.31 318.37 L 971.23 306.48 L 976.29 291.35 L 983.15 270.79 L 984.84 265.74 L 989.62 249.01 L 991.19 241.99 L 992.50 233.01 L 991.79 222.50 L 986.58 211.36 L 982.00 206.64 L 977.74 203.25 L 971.52 198.73 L 966.01 194.39 L 960.82 189.24 L 956.57 182.83 L 951.59 172.61 L 948.95 166.58 L 947.46 163.45 L 945.25 159.32 L 942.22 154.89 L 938.42 151.34 L 934.59 149.26 L 931.06 148.28 L 924.22 148.41 L 919.15 150.25 L 914.74 153.06 L 908.27 159.35 L 905.00 163.35 L 901.31 168.72 L 894.75 180.27 L 893.31 183.51 L 891.27 188.68 L 886.72 204.13 L 885.29 211.94 L 884.25 221.13 L 883.91 225.03 L 883.27 235.43 L 882.97 241.93 L 882.47 254.54 L 882.13 263.97 L 881.48 277.24 L 881.02 284.41 L 879.55 299.89 L 877.60 313.73 L 875.57 323.78 L 873.41 332.37 L 870.60 341.24 L 867.75 348.47 L 862.24 360.29 L 856.50 369.27 L 852.34 373.75 L 843.37 379.53 L 837.83 381.30 L 832.55 381.86 L 822.15 381.37 L 811.98 379.43 L 805.44 377.64 L 794.72 373.89 L 786.12 370.33 L 784.61 369.62 L 775.54 365.17 L 769.10 361.73 L 760.44 356.73 L 754.54 353.24 L 745.57 347.95 L 737.91 343.49 L 721.13 333.89 L 714.56 330.09 L 671.50 305.81 L 659.83 299.19 L 641.45 288.77 L 629.44 281.92 L 608.81 270.15 L 597.55 263.43 L 587.32 257.04 L 580.04 252.09 L 568.58 243.43 L 561.04 236.81 L 550.88 226.47 L 541.51 215.08 L 532.03 202.18 L 525.58 192.75 L 515.97 178.53 L 509.61 168.92 L 503.80 160.16 L 499.16 153.20 L 489.16 137.91 L 479.28 122.09 L 471.95 110.26 L 461.61 93.19 L 458.10 87.27 L 451.32 76.95 L 443.60 68.19 L 438.45 63.42 L 432.95 59.23 L 428.33 56.49 L 420.66 54.24 L 417.84 53.96 L 405.22 56.34 L 401.43 57.82 L 395.61 60.49 L 388.47 64.25 L 381.03 68.67 L 369.58 75.81 L 359.16 84.08 L 351.76 90.30 L 345.30 95.92 L 336.42 103.88 L 332.27 107.55 L 326.53 112.11 L 320.48 116.07 L 317.17 117.78 L 309.35 119.67 L 306.89 119.41 L 301.33 116.30 L 299.35 113.90 L 296.88 109.72 L 295.86 107.62 L 294.77 105.05 L 292.62 98.58 L 291.17 93.78 L 291.07 93.36 L 288.41 81.20 L 287.55 77.33 L 284.88 66.12 L 282.62 57.84 L 279.38 47.54 L 275.26 36.76 L 270.40 27.86 L 266.42 22.32 L 260.70 16.40 L 254.22 11.46 L 251.49 10.04 L 244.82 7.89 L 239.24 7.50 L 235.03 7.67 L 230.38 8.31 L 225.80 9.57 L 216.93 13.41 L 208.48 18.24 L 203.56 21.34 L 193.53 28.47 L 182.98 36.53 L 176.54 41.95 L 167.06 49.77 L 160.12 55.17 L 150.68 62.43 L 141.53 69.23 L 137.89 71.81 L 122.27 82.68 L 114.73 87.95 L 105.45 94.39 L 91.39 104.29 L 77.82 113.76 L 69.78 119.45 L 61.62 125.09 L 56.62 128.37 L 39.90 138.58 L 29.59 145.50 L 21.02 151.69 L 19.62 152.96 L 13.02 161.10 L 11.02 165.40 L 8.83 172.79 L 8.23 176.13 L 7.60 181.74 L 7.50 186.71 L 7.83 191.22 L 9.60 200.09 L 12.23 206.63 L 14.59 210.90 L 17.43 215.10 L 22.79 221.66 L 26.29 225.21 L 28.45 227.40 L 32.56 231.23 L 39.06 238.98 L 41.12 245.33 L 41.14 253.83 L 39.57 262.25 L 38.17 267.79 L 35.69 276.75 L 32.02 291.27 L 31.58 294.90 L 32.32 302.33 L 34.82 309.62 L 39.06 318.90 L 42.35 325.45 L 48.40 337.79 L 51.10 343.55 L 55.47 353.49 L 58.28 360.92 L 59.85 365.93 L 61.56 372.86 L 63.03 381.73 L 64.10 390.05 L 64.97 395.62 L 67.70 404.50 L 69.20 407.12 L 72.57 410.83 L 73.21 411.35 L 77.04 412.62 L 81.28 412.23 L 83.41 411.31 L 86.27 409.61 L 88.35 408.00 L 91.61 404.80 L 93.64 402.50 L 95.75 399.87 L 96.85 398.46 L 99.45 394.95 L 102.68 390.41 L 105.12 386.90 L 109.46 380.29 L 112.87 374.87 L 118.61 365.74 L 124.61 356.51 L 129.87 348.55 L 136.52 339.19 L 144.13 328.72 L 148.61 322.61 L 156.71 311.41 L 161.86 304.15 L 171.22 290.58 L 172.86 288.32 L 179.92 278.25 L 185.02 271.26 L 191.37 262.56 L 198.95 252.15 L 207.92 240.03 L 214.71 231.01 L 230.26 212.07 L 241.76 199.43 L 248.33 192.46 L 255.02 185.54 L 268.33 172.19 L 271.92 168.77 L 282.48 158.79 L 291.83 151.56 L 298.60 148.60 L 303.28 148.20 L 307.25 149.02 L 311.66 151.29 L 315.36 154.57 L 319.46 159.72 L 322.40 164.64 L 325.02 169.63 L 327.05 173.67 L 329.08 178.01 L 333.63 188.03 L 336.82 195.27 L 339.55 201.93 L 342.80 210.31 L 346.13 218.51 L 352.53 232.63 L 355.27 238.48 L 360.95 250.50 L 366.18 261.28 L 371.72 271.39 L 380.21 284.21 L 387.98 293.51 L 402.85 306.72 L 416.10 315.33 L 419.53 317.30 L 428.37 322.09 L 440.79 328.84 L 456.07 337.22 L 478.09 349.33 L 486.45 353.89 L 499.60 361.13 L 510.05 366.89 L 526.42 375.78 L 546.91 386.74 L 560.79 394.02 L 568.83 398.13 L 576.89 402.04 L 598.21 412.50 L 609.32 418.12 L 617.87 422.41 L 633.45 430.63 L 642.23 435.53 L 652.78 441.86 L 658.41 446.25 L 663.43 452.58 L 664.81 459.27 L 664.09 464.77 L 662.95 470.21 L 662.06 476.07 L 661.75 479.76 L 661.80 486.28 L 662.13 490.49 L 663.79 498.64 L 665.21 502.55 L 669.28 510.13 L 676.07 517.88 L 683.48 523.84 L 687.81 526.89 L 694.89 531.15 L 699.91 533.86 L 712.76 540.15 L 719.58 543.41 L 730.50 548.64 L 742.54 554.63 L 755.62 561.39 L 761.88 564.75 L 772.17 570.36 L 780.19 574.84 L 787.48 578.83 L 791.55 581.02 L 811.28 590.30 L 823.28 593.68 L 832.06 594.16 L 834.39 593.91 L 843.07 591.91 L 857.31 585.27 L 869.62 576.92 L 873.54 573.73 L 881.50 566.00 L 885.99 560.64 L 890.60 554.23 L 896.03 544.96 L 902.87 530.29 L 907.66 517.17 L 911.81 503.69 L 917.29 484.03 L 919.93 474.41 Z" fill="none" stroke="black" stroke-width="15"/>
</svg>
