<svg xmlns="http://www.w3.org/2000/svg" width="1000.00" height="501.48" viewBox="0 0 1000.00 501.48">
  <path d="M 537.88 492.90 L 530.82 492.95 L 522.03 493.01 L 510.53 493.12 L 502.55 493.16 L 498.09 493.18 L 478.44 493.30 L 461.43 493.56 L 443.08 493.67 L 435.84 493.75 L 425.11 493.88 L 412.85 493.98 L 401.26 493.29 L 396.49 492.57 L 389.50 490.69 L 383.54 487.74 L 378.97 483.65 L 375.94 479.81 L 373.04 475.22 L 366.32 463.61 L 364.16 460.30 L 358.06 453.34 L 349.85 446.56 L 341.26 441.38 L 340.11 440.84 L 334.63 438.67 L 318.80 435.44 L 307.21 434.88 L 302.29 435.01 L 290.18 435.71 L 282.20 436.10 L 268.10 436.52 L 259.80 436.66 L 252.95 436.64 L 236.61 436.39 L 227.93 436.14 L 215.15 435.49 L 208.73 435.06 L 201.42 434.51 L 185.91 433.12 L 177.88 432.17 L 168.76 431.10 L 155.41 429.14 L 147.06 427.80 L 135.29 425.70 L 125.94 423.95 L 117.50 422.22 L 105.63 419.66 L 91.27 416.53 L 77.03 413.15 L 71.50 411.58 L 67.97 410.43 L 62.47 407.73 L 57.92 404.24 L 55.44 401.60 L 53.38 398.54 L 52.27 396.10 L 51.47 391.41 L 52.58 386.40 L 54.43 382.88 L 56.09 380.52 L 58.93 376.81 L 60.94 374.32 L 65.32 368.91 L 69.30 364.30 L 74.59 357.26 L 76.48 353.99 L 78.56 349.35 L 79.99 344.04 L 80.46 339.58 L 80.15 334.69 L 78.03 327.69 L 76.22 324.32 L 72.03 318.77 L 70.62 317.23 L 66.71 313.61 L 59.88 307.98 L 56.28 305.17 L 50.66 300.86 L 46.29 297.62 L 40.81 293.58 L 35.29 289.31 L 26.19 281.10 L 20.88 275.17 L 15.02 266.95 L 11.01 259.01 L 8.32 249.72 L 7.60 244.89 L 7.50 236.42 L 8.00 229.99 L 9.38 219.33 L 10.32 213.59 L 12.62 200.59 L 13.92 194.78 L 17.23 182.46 L 17.68 180.99 L 21.34 170.13 L 24.37 162.17 L 28.81 151.38 L 32.40 142.66 L 35.56 134.98 L 38.02 129.09 L 41.58 120.19 L 46.00 108.95 L 50.68 96.06 L 53.93 85.40 L 56.84 73.81 L 59.94 65.08 L 63.08 60.60 L 66.83 57.19 L 72.44 53.98 L 82.25 51.55 L 85.03 51.21 L 94.51 49.94 L 102.31 47.79 L 110.57 44.10 L 115.54 41.31 L 120.44 38.37 L 125.91 34.95 L 136.86 27.76 L 145.00 22.74 L 153.51 18.18 L 159.61 15.26 L 172.41 10.56 L 185.81 7.91 L 194.26 7.50 L 212.05 8.97 L 225.04 11.76 L 234.76 14.88 L 244.21 18.81 L 253.38 23.43 L 260.27 27.35 L 267.05 31.51 L 296.97 53.19 L 308.51 64.50 L 312.78 69.42 L 319.63 77.52 L 328.41 88.25 L 334.39 96.02 L 341.53 107.85 L 344.94 115.39 L 346.60 119.18 L 349.27 125.24 L 353.17 133.50 L 356.42 140.30 L 360.53 148.63 L 363.82 155.47 L 369.94 169.46 L 373.12 178.34 L 375.90 186.51 L 377.11 189.69 L 380.59 197.38 L 385.37 205.62 L 390.31 212.80 L 396.88 220.90 L 414.82 238.11 L 424.31 246.01 L 429.86 250.33 L 436.21 254.90 L 444.38 260.07 L 452.07 264.39 L 461.55 268.98 L 472.16 273.45 L 478.76 275.99 L 483.75 277.80 L 493.85 281.04 L 504.06 283.82 L 518.85 286.46 L 531.27 287.60 L 543.36 288.02 L 553.20 288.05 L 565.64 287.70 L 573.70 287.32 L 584.36 286.62 L 592.35 285.95 L 607.14 284.17 L 612.85 283.22 L 622.85 280.48 L 629.37 277.08 L 636.34 270.84 L 642.08 263.91 L 648.30 255.90 L 654.30 248.73 L 661.63 241.30 L 670.61 234.50 L 672.45 233.47 L 678.33 231.12 L 686.23 229.57 L 698.51 228.48 L 705.06 228.10 L 710.82 227.85 L 717.33 227.44 L 726.87 226.66 L 735.04 226.03 L 739.51 225.72 L 747.81 225.16 L 755.48 224.73 L 765.58 224.10 L 776.48 223.52 L 780.39 223.41 L 791.53 223.43 L 797.92 223.82 L 804.41 224.46 L 815.66 226.31 L 826.79 229.03 L 837.07 232.16 L 855.67 239.55 L 864.07 243.46 L 873.24 247.94 L 881.56 252.13 L 887.66 255.23 L 897.55 260.39 L 899.85 261.62 L 911.31 267.69 L 918.20 271.40 L 925.13 275.14 L 938.26 282.08 L 942.16 284.12 L 950.59 288.69 L 963.63 296.55 L 970.78 301.59 L 981.02 308.84 L 984.32 311.39 L 990.04 317.53 L 992.25 322.25 L 992.50 325.80 L 991.77 329.13 L 989.43 334.43 L 986.42 339.89 L 982.00 347.55 L 979.06 352.52 L 975.59 358.23 L 973.46 361.67 L 968.94 368.80 L 963.48 377.24 L 959.76 383.19 L 955.45 390.46 L 953.17 394.18 L 947.75 402.73 L 945.57 406.77 L 941.84 412.99 L 938.03 418.27 L 931.76 424.73 L 927.67 427.72 L 924.90 429.22 L 918.25 431.49 L 912.33 432.37 L 898.36 431.78 L 887.11 429.44 L 881.24 427.72 L 876.00 425.94 L 868.80 423.42 L 860.25 420.29 L 848.90 415.91 L 843.73 413.92 L 838.22 411.92 L 828.87 409.48 L 824.78 408.53 L 821.10 407.86 L 815.59 407.66 L 812.41 408.24 L 808.72 410.21 L 806.07 412.98 L 804.70 415.20 L 803.59 418.28 L 803.17 420.13 L 802.90 423.71 L 802.98 426.88 L 803.25 429.52 L 803.70 432.27 L 805.27 438.97 L 806.61 444.73 L 807.26 451.49 L 805.77 462.46 L 801.95 472.23 L 799.20 476.40 L 795.69 480.21 L 785.98 486.82 L 779.99 489.49 L 773.88 491.39 L 769.40 492.19 L 762.96 492.82 L 754.52 493.09 L 746.40 493.20 L 733.47 493.18 L 717.27 493.07 L 708.87 492.96 L 701.00 492.90 L 692.28 492.88 L 681.18 492.76 L 669.86 492.70 L 659.07 492.62 L 648.92 492.55 L 640.27 492.47 L 633.87 492.43 L 618.55 492.30 L 611.28 492.28 L 594.76 492.48 L 586.43 492.51 L 572.72 492.62 L 564.07 492.68 Z" fill="none" stroke="black" stroke-width="15"/>
</svg>
