<svg xmlns="http://www.w3.org/2000/svg" width="1000.00" height="606.61" viewBox="0 0 1000.00 606.61">
  <path d="M 109.51 369.75 L 123.75 362.47 L 137.55 355.59 L 146.92 350.94 L 157.28 345.72 L 164.88 341.94 L 178.27 335.19 L 188.95 329.83 L 208.48 319.79 L 216.36 315.71 L 228.36 309.56 L 240.43 303.27 L 248.63 299.06 L 256.79 294.79 L 277.42 284.10 L 288.96 278.11 L 305.79 269.37 L 315.29 264.45 L 336.59 253.20 L 344.03 249.20 L 353.63 243.96 L 376.09 231.45 L 391.10 222.95 L 409.44 212.52 L 422.60 205.11 L 447.61 191.00 L 465.24 181.08 L 483.93 170.57 L 504.89 158.74 L 515.94 152.53 L 524.87 147.61 L 542.82 137.80 L 559.61 128.66 L 575.40 120.09 L 593.45 110.29 L 605.93 103.54 L 616.10 98.05 L 628.54 91.25 L 654.10 77.32 L 674.60 66.23 L 683.68 61.29 L 709.85 47.07 L 722.35 40.23 L 729.17 36.51 L 742.99 28.87 L 761.24 19.01 L 766.29 16.50 L 779.17 10.87 L 784.07 9.30 L 796.34 7.50 L 800.06 7.61 L 807.22 9.03 L 812.41 11.39 L 817.05 14.47 L 821.07 18.18 L 823.88 21.60 L 826.10 25.11 L 827.75 28.06 L 829.70 32.11 L 831.06 35.01 L 833.71 40.03 L 835.95 43.45 L 838.51 46.40 L 840.87 48.40 L 844.15 50.41 L 848.63 52.13 L 852.11 52.82 L 857.85 52.96 L 863.07 52.64 L 866.73 52.55 L 871.02 52.75 L 877.99 54.72 L 883.27 58.33 L 887.50 63.13 L 890.70 67.76 L 893.16 72.51 L 897.09 81.57 L 899.52 88.00 L 901.69 94.29 L 905.30 106.32 L 907.19 113.47 L 909.40 123.12 L 911.17 132.51 L 913.30 145.70 L 914.35 154.21 L 915.47 166.57 L 916.69 183.97 L 917.12 191.52 L 917.64 202.15 L 918.00 211.99 L 919.16 233.17 L 920.29 247.83 L 921.02 256.82 L 922.36 271.66 L 923.43 282.47 L 925.31 300.89 L 926.33 311.99 L 928.31 333.40 L 929.43 345.99 L 931.09 366.73 L 932.49 386.66 L 933.16 399.66 L 933.53 411.56 L 934.10 428.53 L 934.51 445.62 L 934.64 459.92 L 934.68 470.00 L 935.16 482.40 L 937.49 495.52 L 938.92 499.20 L 941.25 503.55 L 943.79 506.92 L 945.91 508.94 L 948.19 510.59 L 951.17 512.07 L 953.69 512.81 L 957.32 513.24 L 961.07 513.16 L 965.71 512.60 L 970.67 511.90 L 976.27 511.64 L 983.16 512.92 L 985.48 514.05 L 988.12 516.10 L 989.76 517.90 L 992.26 523.28 L 992.50 528.74 L 991.96 532.44 L 990.33 538.17 L 988.20 544.36 L 985.92 550.90 L 984.27 555.58 L 981.25 564.64 L 978.08 575.55 L 976.33 580.88 L 973.24 587.35 L 970.67 590.87 L 968.62 592.94 L 965.23 595.57 L 962.59 597.07 L 958.71 598.57 L 955.46 599.11 L 949.27 598.22 L 945.11 596.36 L 942.40 594.69 L 938.01 590.92 L 935.38 587.87 L 930.50 580.82 L 926.03 573.06 L 922.46 565.88 L 920.49 561.68 L 916.88 554.21 L 914.08 548.29 L 911.45 542.75 L 906.06 531.68 L 900.36 519.85 L 897.54 514.03 L 891.51 501.28 L 883.08 483.07 L 880.43 477.37 L 875.29 466.54 L 870.37 456.46 L 862.86 441.79 L 857.89 434.39 L 847.68 422.61 L 835.26 414.74 L 827.70 412.20 L 815.37 410.73 L 800.27 411.36 L 793.56 411.59 L 785.22 411.28 L 774.23 409.83 L 764.09 407.26 L 756.23 404.53 L 746.85 400.50 L 740.42 397.80 L 733.91 395.58 L 726.25 393.69 L 711.14 392.26 L 691.34 394.97 L 682.58 397.85 L 674.17 401.65 L 658.63 411.37 L 649.23 418.03 L 640.12 424.07 L 626.20 431.12 L 617.87 433.77 L 609.20 434.94 L 603.86 434.77 L 596.03 433.34 L 582.98 428.82 L 578.26 426.54 L 570.75 422.24 L 566.62 419.52 L 551.85 411.04 L 538.52 405.91 L 532.87 404.97 L 518.79 404.27 L 510.10 404.96 L 497.72 406.50 L 487.84 408.05 L 478.76 409.68 L 458.53 414.20 L 445.31 418.00 L 430.00 423.25 L 416.50 428.25 L 401.09 434.73 L 395.31 437.36 L 378.76 445.24 L 369.75 449.81 L 355.07 457.41 L 346.21 462.19 L 324.48 474.33 L 315.52 479.43 L 307.46 484.05 L 287.27 495.58 L 270.92 504.97 L 251.28 516.01 L 244.58 519.88 L 237.00 524.15 L 229.50 528.19 L 215.81 533.83 L 205.31 535.34 L 197.64 534.70 L 193.25 533.67 L 187.38 531.39 L 182.79 528.60 L 179.17 525.68 L 173.62 520.20 L 169.10 514.79 L 166.54 511.26 L 162.93 505.94 L 158.17 498.48 L 152.84 490.01 L 147.73 482.30 L 144.47 477.47 L 140.09 471.54 L 133.59 464.43 L 128.06 460.00 L 125.61 458.80 L 119.12 457.72 L 115.92 458.22 L 112.11 459.92 L 110.21 461.30 L 108.06 463.69 L 106.90 465.52 L 105.90 467.90 L 104.64 472.21 L 102.97 478.56 L 100.77 484.88 L 98.28 489.09 L 95.46 492.38 L 92.06 495.34 L 88.91 497.72 L 85.93 499.55 L 81.69 501.80 L 74.41 505.11 L 68.91 507.69 L 62.66 510.83 L 58.42 513.08 L 52.75 516.21 L 48.05 518.63 L 45.35 519.93 L 41.97 521.31 L 35.64 522.51 L 32.46 522.34 L 26.93 520.32 L 25.86 519.76 L 21.22 516.10 L 18.59 513.29 L 15.64 509.23 L 13.88 506.12 L 12.79 503.93 L 10.43 497.95 L 8.74 491.64 L 7.50 482.53 L 7.70 472.78 L 8.27 468.55 L 10.35 459.10 L 11.78 454.58 L 15.01 446.60 L 18.10 440.72 L 22.19 434.27 L 29.95 424.33 L 34.42 419.42 L 40.43 413.57 L 46.92 408.03 L 57.47 400.11 L 64.19 395.56 L 68.83 392.60 L 75.94 388.26 L 90.22 380.12 L 100.72 374.40 Z" fill="none" stroke="black" stroke-width="15"/>
</svg>
