<svg xmlns="http://www.w3.org/2000/svg" width="1000.00" height="390.63" viewBox="0 0 1000.00 390.63">
  <path d="M 422.96 67.50 L 437.02 75.62 L 445.54 80.62 L 460.89 89.49 L 471.50 95.68 L 483.13 102.43 L 495.91 109.73 L 505.84 115.28 L 515.83 120.76 L 532.99 130.16 L 547.35 137.48 L 566.22 146.49 L 579.42 152.79 L 591.82 158.71 L 600.31 162.86 L 615.59 171.66 L 621.52 176.56 L 624.07 179.38 L 626.03 182.36 L 627.77 186.67 L 628.37 190.56 L 627.98 194.68 L 626.66 198.57 L 624.35 202.69 L 622.01 205.88 L 618.39 210.12 L 614.75 214.02 L 611.62 217.31 L 608.80 220.19 L 604.85 224.50 L 599.58 231.24 L 593.87 242.11 L 591.47 251.33 L 591.27 253.13 L 591.07 262.41 L 591.36 270.95 L 590.82 281.83 L 586.65 299.00 L 584.44 304.18 L 580.51 311.20 L 570.58 322.55 L 563.03 328.51 L 552.53 335.04 L 540.48 340.95 L 530.28 344.76 L 519.33 347.85 L 509.39 349.72 L 498.10 350.98 L 486.52 351.32 L 470.91 350.07 L 459.24 347.90 L 444.84 343.37 L 436.31 339.82 L 433.55 338.53 L 421.54 332.32 L 413.36 327.71 L 393.41 316.02 L 380.63 308.45 L 369.54 301.94 L 362.16 297.50 L 354.72 293.12 L 340.11 284.49 L 334.43 281.24 L 323.96 275.38 L 315.13 270.92 L 299.22 263.20 L 289.20 258.91 L 270.88 254.05 L 248.89 254.02 L 237.11 256.42 L 220.95 263.94 L 202.48 275.72 L 196.82 278.63 L 190.35 281.11 L 175.40 283.82 L 166.98 283.51 L 156.30 281.10 L 145.26 276.12 L 139.23 272.43 L 131.97 267.51 L 122.63 259.82 L 111.76 251.92 L 105.28 248.64 L 94.83 245.23 L 82.05 243.55 L 62.86 246.08 L 51.40 249.92 L 37.15 257.05 L 27.79 264.06 L 20.63 271.53 L 15.83 278.26 L 10.38 289.25 L 8.96 294.13 L 7.80 300.73 L 7.50 305.38 L 7.87 312.12 L 8.70 316.86 L 10.77 323.22 L 14.51 329.58 L 22.02 336.14 L 26.94 338.42 L 35.09 340.39 L 42.66 340.92 L 52.20 340.91 L 55.38 340.87 L 67.82 340.57 L 73.18 340.58 L 84.06 340.99 L 95.49 341.99 L 103.07 342.85 L 115.85 344.39 L 123.37 345.45 L 132.76 346.98 L 144.10 349.03 L 152.10 350.54 L 162.08 351.98 L 180.86 352.92 L 189.53 352.68 L 210.02 351.37 L 219.80 350.50 L 231.82 349.48 L 243.31 348.62 L 259.57 347.58 L 273.00 346.92 L 286.62 346.24 L 303.42 345.46 L 321.47 344.56 L 331.06 344.16 L 343.97 343.78 L 356.83 343.99 L 366.46 344.84 L 382.46 347.80 L 385.67 348.61 L 400.53 352.86 L 412.12 356.57 L 430.33 362.29 L 443.18 366.01 L 461.31 370.95 L 482.96 376.28 L 502.89 379.96 L 527.76 382.67 L 539.24 383.13 L 554.27 383.07 L 571.60 382.13 L 592.72 379.94 L 605.44 378.10 L 618.15 375.87 L 636.48 371.65 L 646.71 368.71 L 669.17 361.24 L 681.40 356.70 L 700.36 349.55 L 714.94 344.00 L 729.52 338.53 L 754.24 329.12 L 765.54 324.68 L 777.75 319.68 L 784.48 316.80 L 801.04 309.33 L 811.99 304.18 L 827.23 296.69 L 830.48 295.06 L 844.54 287.87 L 854.24 282.83 L 870.37 274.32 L 883.04 267.38 L 892.07 262.23 L 900.18 257.31 L 909.58 251.35 L 919.02 244.73 L 925.90 238.86 L 929.68 235.02 L 933.16 230.53 L 935.10 227.28 L 936.71 223.98 L 938.28 215.91 L 937.43 212.36 L 935.73 209.17 L 931.51 204.15 L 930.76 203.45 L 926.32 199.63 L 923.19 197.22 L 919.92 194.75 L 916.45 192.09 L 912.70 188.98 L 906.31 182.44 L 902.46 176.42 L 900.87 172.70 L 899.40 164.73 L 900.14 157.42 L 900.96 154.41 L 902.48 150.51 L 903.84 147.88 L 906.81 143.67 L 909.75 140.52 L 912.58 138.24 L 915.50 136.41 L 920.52 134.18 L 924.46 133.12 L 929.27 132.29 L 934.42 131.91 L 942.29 131.57 L 950.36 131.09 L 955.17 130.52 L 961.08 128.99 L 972.08 123.24 L 982.75 112.20 L 988.07 103.14 L 991.27 94.42 L 992.29 89.28 L 992.50 85.90 L 992.19 82.79 L 987.72 78.05 L 984.02 76.32 L 980.83 74.12 L 979.67 71.37 L 979.63 66.47 L 980.92 59.60 L 982.76 51.66 L 984.57 44.70 L 986.23 39.21 L 987.56 35.39 L 989.50 28.50 L 989.09 20.37 L 987.68 18.16 L 985.76 16.24 L 982.98 14.29 L 979.13 12.30 L 975.77 10.96 L 971.82 9.78 L 966.82 8.69 L 961.23 7.96 L 958.70 7.78 L 953.33 7.57 L 947.83 7.50 L 939.42 7.59 L 933.99 7.59 L 925.91 7.67 L 919.88 7.68 L 913.59 7.70 L 906.50 7.75 L 899.08 7.74 L 892.13 7.79 L 882.66 7.85 L 871.99 7.90 L 861.86 7.92 L 848.02 8.00 L 840.01 8.09 L 825.31 8.27 L 815.97 8.40 L 808.35 8.46 L 794.85 8.67 L 779.22 8.88 L 761.21 9.11 L 753.13 9.20 L 736.71 9.44 L 727.38 9.57 L 707.38 9.80 L 691.42 9.96 L 681.75 10.03 L 670.95 10.08 L 654.66 10.05 L 644.85 10.06 L 626.17 10.05 L 612.86 10.06 L 599.48 10.06 L 574.57 10.07 L 558.54 10.03 L 544.69 10.05 L 542.37 10.07 L 528.40 10.02 L 504.88 10.05 L 487.13 10.07 L 470.17 10.07 L 454.53 10.02 L 434.06 10.01 L 423.14 10.06 L 409.76 10.19 L 393.87 10.48 L 381.69 10.71 L 371.89 10.85 L 360.83 11.04 L 344.81 11.27 L 332.43 11.44 L 313.83 11.75 L 297.74 12.05 L 279.13 12.30 L 261.72 12.58 L 251.79 12.73 L 232.25 12.68 L 223.23 12.40 L 213.07 11.83 L 194.48 10.56 L 176.82 9.45 L 160.09 8.44 L 149.55 8.15 L 145.18 8.24 L 136.92 8.92 L 131.59 9.84 L 127.39 10.91 L 124.44 12.01 L 120.49 14.46 L 118.57 16.39 L 117.00 18.76 L 116.09 21.31 L 115.73 24.24 L 116.36 28.98 L 117.46 31.99 L 118.52 33.94 L 120.75 37.11 L 123.91 40.45 L 125.82 42.03 L 128.54 44.06 L 134.38 47.96 L 138.69 50.13 L 139.97 50.75 L 147.60 54.72 L 152.47 57.60 L 156.53 60.04 L 160.79 62.48 L 173.12 68.67 L 182.63 71.38 L 195.64 72.19 L 209.04 69.00 L 218.97 65.01 L 235.17 56.70 L 242.85 52.72 L 253.06 47.33 L 260.29 43.70 L 279.26 36.74 L 287.61 34.86 L 300.92 33.01 L 315.46 31.97 L 333.90 32.58 L 348.63 35.25 L 359.53 38.25 L 375.14 43.13 L 389.45 48.99 L 397.00 52.77 L 408.07 58.68 Z" fill="none" stroke="black" stroke-width="15"/>
</svg>
