<svg xmlns="http://www.w3.org/2000/svg" width="1000.00" height="407.90" viewBox="0 0 1000.00 407.90">
  <path d="M 152.17 93.81 L 159.47 85.65 L 172.51 73.47 L 179.81 67.04 L 188.22 59.74 L 200.15 50.16 L 212.39 41.01 L 222.53 34.08 L 239.04 23.76 L 249.48 17.76 L 254.86 14.86 L 260.98 11.83 L 266.24 9.54 L 272.85 7.50 L 283.30 8.30 L 288.68 10.71 L 297.77 16.59 L 304.82 22.15 L 310.69 27.04 L 319.10 34.08 L 328.06 41.57 L 333.50 45.77 L 351.00 58.20 L 364.48 66.60 L 372.45 71.49 L 386.98 80.21 L 397.25 86.39 L 406.77 92.08 L 415.48 97.21 L 431.13 106.54 L 439.91 112.36 L 452.21 121.69 L 461.42 129.54 L 473.72 139.25 L 489.37 148.09 L 506.12 154.33 L 529.24 162.00 L 538.64 165.83 L 550.26 171.28 L 564.73 179.68 L 579.75 190.26 L 596.14 203.05 L 605.47 210.29 L 631.56 225.62 L 639.73 228.46 L 653.14 231.12 L 666.93 231.18 L 675.15 229.76 L 683.00 226.98 L 693.70 220.61 L 703.65 211.40 L 709.28 204.17 L 714.60 194.65 L 718.12 185.80 L 721.89 170.29 L 723.62 156.81 L 724.12 150.50 L 727.08 132.82 L 730.98 124.72 L 736.67 118.54 L 746.81 112.36 L 759.73 107.84 L 763.25 107.04 L 771.60 105.49 L 785.14 104.07 L 794.10 103.64 L 808.26 102.96 L 816.05 102.22 L 835.03 99.19 L 851.91 95.91 L 861.49 94.36 L 870.83 93.07 L 884.74 91.52 L 895.87 90.65 L 897.85 90.53 L 910.89 90.47 L 914.66 91.03 L 918.62 92.51 L 922.70 96.22 L 925.36 101.47 L 926.47 107.16 L 926.04 112.29 L 925.54 114.15 L 921.96 121.81 L 916.76 130.47 L 913.55 136.28 L 910.15 142.90 L 905.14 154.71 L 901.00 167.38 L 900.69 168.68 L 900.75 169.11 L 899.45 176.47 L 899.33 181.54 L 899.89 185.19 L 902.05 190.69 L 905.45 193.72 L 907.92 194.21 L 908.36 194.15 L 911.76 192.60 L 913.18 191.31 L 914.41 189.82 L 916.33 186.79 L 916.89 185.62 L 918.93 179.13 L 919.55 174.68 L 919.73 171.52 L 919.92 166.64 L 919.92 163.42 L 920.23 155.94 L 921.28 149.70 L 923.87 144.13 L 927.83 140.05 L 932.10 137.77 L 936.73 136.71 L 940.01 136.65 L 948.48 137.95 L 961.90 142.59 L 967.83 145.06 L 973.03 147.53 L 981.31 152.23 L 985.51 155.32 L 988.67 158.35 L 992.50 167.13 L 991.88 172.33 L 990.71 175.73 L 987.86 181.41 L 983.04 188.34 L 978.77 193.22 L 974.45 197.55 L 966.72 204.66 L 961.65 208.86 L 952.00 216.53 L 946.07 221.23 L 939.33 226.61 L 929.87 234.21 L 923.87 239.10 L 913.67 247.32 L 906.38 253.13 L 898.71 258.70 L 880.72 269.39 L 871.69 274.09 L 858.09 280.64 L 847.33 285.47 L 828.48 293.32 L 808.94 300.61 L 792.93 305.25 L 763.50 308.71 L 741.80 306.67 L 729.06 303.58 L 718.92 300.37 L 697.66 292.70 L 677.44 285.84 L 667.11 282.44 L 653.08 277.92 L 631.19 270.38 L 611.84 262.90 L 601.70 258.57 L 580.37 248.25 L 570.60 242.93 L 557.50 234.89 L 543.15 224.75 L 529.99 214.55 L 521.64 207.69 L 515.09 202.37 L 509.46 197.86 L 504.82 194.46 L 499.69 191.18 L 494.13 189.33 L 486.34 190.32 L 477.56 192.67 L 473.79 192.73 L 470.01 191.80 L 464.45 188.34 L 463.40 187.41 L 458.02 180.92 L 456.04 177.83 L 452.52 171.96 L 452.27 171.46 L 448.19 166.02 L 437.80 156.62 L 434.28 154.09 L 427.54 149.08 L 419.69 143.33 L 412.08 137.70 L 405.10 132.33 L 398.42 127.13 L 384.20 116.00 L 372.21 106.48 L 355.33 92.82 L 347.29 86.14 L 335.05 75.51 L 324.29 65.99 L 309.89 56.53 L 300.68 54.12 L 288.93 53.87 L 272.92 56.28 L 262.22 59.31 L 251.59 63.64 L 234.15 73.53 L 226.98 78.60 L 218.45 85.15 L 199.16 103.08 L 190.19 115.26 L 189.76 116.19 L 186.42 138.94 L 176.65 163.18 L 170.22 174.92 L 137.15 222.34 L 130.22 230.38 L 122.93 237.80 L 113.78 243.86 L 108.34 244.35 L 97.15 245.65 L 87.63 254.68 L 81.69 263.09 L 81.01 264.26 L 77.30 270.57 L 70.75 284.54 L 67.41 293.69 L 64.44 304.32 L 62.90 312.42 L 61.66 321.82 L 61.23 332.52 L 61.84 341.17 L 63.95 350.57 L 67.97 364.36 L 69.88 370.72 L 71.30 376.60 L 71.80 385.38 L 70.87 389.02 L 69.14 392.24 L 67.41 394.22 L 65.00 396.26 L 62.28 398.11 L 56.47 400.21 L 52.45 400.40 L 46.20 398.61 L 43.42 397.06 L 38.66 394.03 L 28.21 385.31 L 23.33 380.68 L 17.95 375.17 L 13.93 370.17 L 11.27 366.40 L 8.43 360.95 L 7.50 356.07 L 7.81 352.18 L 9.42 347.35 L 14.61 338.45 L 19.49 330.97 L 24.01 322.25 L 27.16 312.17 L 29.70 299.13 L 31.06 291.34 L 33.22 281.39 L 37.30 268.40 L 46.88 246.58 L 52.82 234.96 L 57.58 226.11 L 62.46 217.15 L 72.29 199.78 L 75.26 194.58 L 87.13 174.68 L 94.61 163.11 L 107.41 145.74 L 114.83 136.47 L 128.55 120.52 L 139.99 107.47 Z" fill="none" stroke="black" stroke-width="15"/>
</svg>
