<svg xmlns="http://www.w3.org/2000/svg" width="1000.00" height="392.58" viewBox="0 0 1000.00 392.58">
  <path d="M 849.53 218.53 L 860.73 223.72 L 862.32 224.51 L 877.80 233.21 L 892.06 242.45 L 900.23 248.10 L 901.70 249.11 L 916.84 259.47 L 920.17 261.66 L 929.02 266.71 L 931.86 268.05 L 937.79 270.25 L 941.76 271.12 L 946.47 271.38 L 952.05 270.56 L 953.68 270.07 L 957.64 268.62 L 961.33 266.80 L 967.71 262.80 L 971.92 260.13 L 975.20 258.62 L 979.16 258.18 L 983.17 259.54 L 984.66 260.51 L 988.43 264.11 L 989.94 266.16 L 990.97 268.01 L 992.05 270.65 L 992.50 275.03 L 991.69 279.33 L 990.81 281.88 L 989.80 284.12 L 986.68 290.21 L 980.58 299.57 L 977.49 303.37 L 974.73 306.46 L 969.77 311.45 L 964.07 316.94 L 959.81 320.94 L 956.15 324.14 L 950.88 328.38 L 944.60 332.85 L 938.82 336.40 L 932.46 340.00 L 923.26 344.74 L 914.41 349.03 L 907.86 352.00 L 900.54 355.20 L 886.94 360.98 L 882.81 362.75 L 873.88 366.52 L 864.92 369.80 L 860.50 371.00 L 856.69 371.81 L 849.25 372.35 L 844.04 371.47 L 840.67 369.92 L 837.75 368.07 L 834.95 365.99 L 830.74 363.10 L 823.57 359.58 L 820.02 358.35 L 814.12 357.10 L 804.51 357.49 L 797.37 358.79 L 786.57 360.85 L 781.55 361.85 L 775.44 363.10 L 768.56 364.58 L 763.48 365.90 L 755.26 368.46 L 742.42 373.69 L 737.86 375.71 L 729.41 379.37 L 721.97 382.22 L 712.10 384.66 L 702.42 385.08 L 690.14 383.81 L 681.83 382.29 L 673.79 379.85 L 663.00 375.12 L 653.22 369.92 L 647.02 366.45 L 641.56 363.25 L 632.84 358.08 L 626.19 353.89 L 620.53 350.64 L 615.70 348.37 L 610.15 346.25 L 603.83 344.66 L 599.80 344.24 L 594.16 344.72 L 589.23 346.66 L 587.25 348.03 L 583.30 352.79 L 582.05 355.26 L 579.72 360.41 L 577.89 364.53 L 575.42 368.83 L 569.18 375.45 L 565.34 377.79 L 560.43 379.79 L 552.95 381.61 L 543.83 382.20 L 535.85 381.51 L 531.16 380.67 L 526.47 379.48 L 518.72 377.13 L 512.10 374.79 L 500.37 370.27 L 493.96 367.75 L 482.14 362.95 L 469.33 357.55 L 457.52 352.40 L 452.58 350.24 L 444.77 346.68 L 436.85 343.00 L 423.80 336.72 L 415.77 332.69 L 402.54 325.65 L 395.26 321.54 L 383.56 314.61 L 375.58 309.60 L 364.69 302.51 L 351.00 292.98 L 347.47 290.39 L 341.78 286.18 L 333.32 279.62 L 324.35 272.24 L 316.87 265.84 L 308.82 258.72 L 302.10 252.79 L 295.13 246.65 L 285.93 238.81 L 278.14 231.77 L 272.21 225.24 L 269.13 219.58 L 268.58 216.15 L 269.53 210.03 L 270.61 206.23 L 271.57 200.18 L 271.43 193.65 L 270.41 187.91 L 268.34 182.01 L 265.37 176.35 L 260.75 169.81 L 255.13 163.57 L 248.31 156.93 L 244.75 153.62 L 241.03 150.28 L 232.82 143.02 L 225.81 136.74 L 217.39 129.55 L 213.54 126.44 L 206.23 120.60 L 199.84 115.60 L 193.95 111.11 L 183.63 103.37 L 172.36 95.20 L 160.72 87.17 L 154.03 82.84 L 147.88 79.05 L 142.31 75.73 L 129.55 68.47 L 120.33 63.45 L 107.62 56.87 L 93.97 50.73 L 85.27 47.52 L 83.67 46.97 L 72.28 43.58 L 56.73 39.45 L 45.64 36.51 L 38.05 34.43 L 28.10 31.56 L 19.96 28.95 L 16.26 27.46 L 13.38 25.98 L 9.67 23.06 L 7.90 19.93 L 7.50 18.12 L 8.01 13.60 L 9.21 11.35 L 10.60 9.84 L 13.45 8.27 L 18.00 7.50 L 21.22 7.56 L 23.58 7.80 L 30.15 9.11 L 36.88 11.27 L 41.90 13.29 L 49.64 16.63 L 55.70 19.14 L 60.14 20.80 L 66.73 22.76 L 76.12 24.68 L 90.54 26.49 L 98.37 27.22 L 107.13 27.98 L 114.71 28.64 L 118.18 29.00 L 132.57 30.21 L 142.94 31.05 L 150.45 31.61 L 155.79 32.03 L 162.67 32.55 L 179.81 33.91 L 186.94 34.51 L 194.94 35.27 L 212.91 37.08 L 222.04 38.03 L 234.59 39.56 L 242.18 40.64 L 249.84 41.81 L 257.52 43.17 L 267.24 45.03 L 276.00 46.79 L 286.36 49.10 L 298.51 51.96 L 307.24 54.11 L 317.71 56.78 L 321.24 57.71 L 340.62 62.75 L 346.84 64.40 L 356.59 66.98 L 366.43 69.61 L 383.49 74.13 L 393.38 76.78 L 404.26 79.67 L 421.48 84.22 L 431.53 86.90 L 447.87 91.33 L 467.04 96.55 L 477.94 99.51 L 495.37 104.10 L 505.49 106.76 L 518.38 110.12 L 529.40 112.97 L 539.50 115.56 L 547.74 117.75 L 565.99 122.48 L 572.16 124.11 L 583.35 127.10 L 589.87 128.85 L 594.88 130.33 L 601.04 132.54 L 604.34 134.01 L 609.24 137.14 L 612.22 140.21 L 616.74 147.28 L 619.60 151.70 L 622.58 155.00 L 628.82 159.50 L 633.25 161.86 L 637.17 163.59 L 644.51 166.37 L 647.50 167.31 L 657.38 170.08 L 667.07 172.33 L 672.44 173.47 L 681.34 175.30 L 689.01 176.90 L 696.68 178.61 L 701.63 179.76 L 705.74 180.70 L 717.74 183.60 L 723.55 185.03 L 736.04 188.12 L 746.63 190.68 L 755.88 192.87 L 767.63 195.69 L 784.44 199.66 L 793.39 201.75 L 801.63 203.71 L 810.55 205.97 L 825.67 210.11 L 833.88 212.70 L 840.48 214.97 Z" fill="none" stroke="black" stroke-width="15"/>
</svg>
