<svg xmlns="http://www.w3.org/2000/svg" width="1000.00" height="507.78" viewBox="0 0 1000.00 507.78">
  <path d="M 766.15 498.26 L 760.70 498.25 L 753.62 498.26 L 744.16 498.21 L 736.24 498.20 L 723.44 498.22 L 714.65 498.24 L 703.35 498.26 L 692.04 498.28 L 684.74 498.26 L 674.15 498.31 L 661.88 498.32 L 654.49 498.31 L 642.17 498.33 L 634.78 498.32 L 628.14 498.33 L 619.88 498.35 L 607.43 498.38 L 600.79 498.39 L 594.15 498.40 L 574.98 498.41 L 564.12 498.43 L 557.39 498.45 L 551.54 498.43 L 543.18 498.46 L 533.95 498.48 L 527.22 498.49 L 515.44 498.51 L 500.26 498.52 L 483.42 498.54 L 467.68 498.60 L 465.97 498.62 L 456.73 498.63 L 446.66 498.64 L 432.46 498.69 L 429.21 498.71 L 420.33 498.74 L 413.86 498.78 L 402.69 498.79 L 399.61 498.75 L 392.19 498.39 L 387.00 497.30 L 385.31 496.62 L 381.75 494.64 L 380.61 493.64 L 378.62 490.56 L 377.85 488.30 L 377.71 487.69 L 376.35 483.76 L 374.39 481.39 L 372.72 480.48 L 371.82 480.16 L 368.61 479.69 L 366.94 479.66 L 364.71 479.81 L 362.58 480.18 L 360.60 480.61 L 358.97 481.06 L 355.46 482.25 L 352.52 483.30 L 349.58 484.35 L 347.28 485.21 L 340.80 487.54 L 337.17 488.78 L 330.46 491.03 L 325.75 492.50 L 318.45 494.50 L 311.59 496.07 L 304.31 497.28 L 299.44 497.93 L 288.28 499.08 L 285.97 499.28 L 279.50 499.72 L 271.66 500.09 L 263.01 500.28 L 256.06 500.27 L 249.67 500.13 L 236.62 499.29 L 223.36 497.46 L 222.68 497.30 L 210.70 494.52 L 200.75 491.39 L 189.63 486.95 L 187.06 485.72 L 181.95 483.18 L 175.10 479.29 L 166.09 473.31 L 158.67 467.36 L 158.14 466.88 L 149.60 458.74 L 145.04 453.86 L 138.40 445.82 L 132.94 438.25 L 127.28 429.38 L 119.81 415.34 L 116.17 406.95 L 111.84 394.67 L 109.07 385.10 L 107.10 377.62 L 104.29 365.60 L 102.55 357.26 L 100.71 347.31 L 98.24 332.66 L 96.86 324.95 L 94.34 310.22 L 92.99 301.80 L 91.89 294.82 L 90.95 288.57 L 89.49 278.40 L 87.71 265.10 L 86.72 257.31 L 85.95 251.05 L 84.64 241.09 L 83.66 232.86 L 83.05 227.95 L 82.39 222.95 L 81.03 214.36 L 79.27 208.31 L 77.28 203.73 L 75.99 201.47 L 72.62 197.68 L 70.39 196.29 L 68.29 195.51 L 62.76 193.13 L 58.59 189.63 L 56.96 187.66 L 54.83 184.41 L 54.52 183.82 L 52.86 180.45 L 50.64 174.14 L 49.47 170.32 L 48.48 166.63 L 47.82 164.05 L 46.47 159.24 L 43.52 150.61 L 41.44 145.47 L 40.66 143.56 L 38.87 139.15 L 36.84 134.13 L 34.86 129.56 L 31.02 121.32 L 28.09 115.55 L 26.00 111.24 L 22.87 104.66 L 19.82 97.84 L 17.01 91.45 L 15.48 87.97 L 11.98 79.70 L 10.20 74.93 L 8.74 70.27 L 7.50 61.14 L 8.18 52.37 L 9.45 47.78 L 15.50 37.00 L 21.34 31.34 L 28.14 27.14 L 34.21 24.54 L 38.44 23.16 L 47.31 20.98 L 53.02 19.86 L 61.81 18.30 L 68.36 17.25 L 74.48 16.31 L 80.64 15.38 L 91.35 13.61 L 99.62 12.13 L 112.51 9.69 L 125.75 7.74 L 129.47 7.50 L 136.85 7.82 L 143.27 9.42 L 148.71 12.24 L 151.72 14.48 L 154.75 17.38 L 161.35 25.95 L 165.52 32.49 L 169.73 39.29 L 174.08 46.30 L 178.76 53.55 L 182.00 58.41 L 185.96 64.48 L 189.31 69.60 L 193.47 75.92 L 198.07 82.78 L 202.19 88.66 L 206.72 95.17 L 212.46 103.51 L 218.67 112.64 L 222.20 117.83 L 226.59 124.22 L 229.86 128.90 L 233.17 133.58 L 239.57 142.39 L 245.46 149.88 L 258.07 163.86 L 263.92 169.86 L 267.64 173.71 L 278.53 184.50 L 286.36 192.04 L 294.81 200.19 L 299.90 205.11 L 305.04 210.07 L 314.21 218.89 L 321.09 225.55 L 327.48 231.72 L 332.67 236.76 L 337.90 241.80 L 347.27 250.84 L 356.63 259.87 L 368.98 271.81 L 378.30 280.80 L 380.66 283.10 L 390.17 292.25 L 397.28 299.11 L 401.98 303.66 L 409.09 310.52 L 414.96 316.21 L 423.22 324.19 L 430.19 330.93 L 438.96 339.22 L 440.35 340.51 L 444.31 344.03 L 449.26 347.91 L 456.54 351.62 L 462.62 352.72 L 468.63 352.63 L 477.01 351.81 L 481.94 351.42 L 487.56 351.28 L 496.88 352.23 L 501.15 353.26 L 506.40 355.00 L 509.46 356.32 L 517.34 360.91 L 522.06 364.54 L 531.04 371.67 L 534.61 373.78 L 544.38 377.36 L 554.51 379.07 L 562.21 379.59 L 568.81 379.67 L 579.42 379.71 L 588.17 379.73 L 601.07 379.92 L 602.44 379.94 L 616.38 379.95 L 624.87 380.00 L 636.31 380.05 L 639.17 380.07 L 654.44 380.09 L 665.39 380.15 L 672.08 380.18 L 680.26 380.21 L 690.74 380.26 L 699.01 380.33 L 707.32 380.35 L 716.47 380.38 L 728.71 380.46 L 740.19 380.51 L 751.01 380.53 L 757.22 380.56 L 765.75 380.60 L 774.33 380.64 L 783.66 380.66 L 790.74 380.70 L 800.16 380.76 L 810.41 380.79 L 824.62 380.86 L 828.58 380.87 L 834.92 380.93 L 845.26 380.95 L 854.01 380.97 L 861.18 381.01 L 877.95 381.08 L 893.96 381.17 L 904.40 381.27 L 911.57 381.35 L 925.14 381.57 L 935.29 381.96 L 941.25 382.31 L 952.57 383.48 L 957.70 384.30 L 962.50 385.34 L 969.23 387.34 L 977.93 391.86 L 982.45 395.69 L 987.13 401.48 L 989.56 406.06 L 991.84 413.60 L 992.39 417.82 L 992.50 422.12 L 991.67 429.27 L 990.35 434.80 L 988.58 439.66 L 985.84 445.48 L 982.76 450.55 L 978.82 455.82 L 973.93 461.26 L 972.60 462.56 L 966.51 467.85 L 960.34 472.26 L 952.06 477.16 L 938.91 483.19 L 924.89 487.80 L 916.83 489.70 L 907.52 491.43 L 896.35 492.90 L 888.59 493.71 L 879.34 494.56 L 869.20 495.31 L 856.74 496.10 L 851.79 496.40 L 845.09 496.72 L 836.90 497.08 L 829.40 497.34 L 821.11 497.59 L 811.28 497.83 L 807.46 497.90 L 789.27 498.13 L 780.18 498.22 Z" fill="none" stroke="black" stroke-width="15"/>
</svg>
