<svg xmlns="http://www.w3.org/2000/svg" width="1000.00" height="659.73" viewBox="0 0 1000.00 659.73">
  <path d="M 593.98 646.53 L 580.40 646.34 L 569.50 646.22 L 540.69 645.89 L 521.21 645.83 L 503.07 645.71 L 490.41 645.65 L 480.51 645.58 L 470.68 645.43 L 447.87 645.14 L 429.30 644.96 L 417.90 644.86 L 410.74 644.86 L 387.68 644.75 L 371.87 644.72 L 355.97 644.69 L 344.41 644.68 L 324.02 644.72 L 303.71 644.68 L 272.58 644.69 L 244.87 644.74 L 211.17 644.84 L 193.53 644.87 L 187.62 644.91 L 159.25 645.15 L 138.70 645.37 L 113.66 645.58 L 107.83 645.53 L 84.95 645.58 L 74.62 645.53 L 63.14 645.43 L 52.98 645.28 L 42.48 644.90 L 36.56 644.52 L 31.96 644.10 L 22.74 642.18 L 16.14 639.08 L 13.49 637.09 L 9.59 632.48 L 7.85 628.13 L 7.50 625.15 L 7.74 622.39 L 9.02 618.52 L 9.71 617.00 L 11.99 613.17 L 17.01 606.84 L 20.86 602.71 L 22.87 600.64 L 27.86 595.64 L 33.15 589.88 L 36.01 586.12 L 39.32 580.76 L 42.70 572.74 L 44.60 565.01 L 45.34 555.17 L 44.28 543.89 L 40.57 526.04 L 38.27 517.30 L 35.66 509.32 L 31.34 497.57 L 28.46 489.01 L 25.02 469.08 L 24.66 454.11 L 24.99 442.11 L 26.09 425.93 L 29.26 402.18 L 32.98 380.16 L 33.40 377.82 L 35.31 365.85 L 39.38 341.66 L 41.44 329.27 L 44.12 313.03 L 48.60 286.33 L 50.73 273.35 L 54.57 249.91 L 57.09 234.01 L 60.10 215.43 L 62.01 203.38 L 63.51 193.93 L 66.03 177.69 L 68.05 164.06 L 69.95 151.76 L 73.98 124.23 L 75.47 114.53 L 77.48 100.64 L 79.90 84.08 L 81.57 72.37 L 83.26 61.08 L 85.12 50.11 L 87.52 40.12 L 91.87 28.82 L 95.47 22.28 L 98.80 17.67 L 102.50 13.88 L 107.22 10.72 L 111.40 8.99 L 120.84 7.50 L 129.26 7.87 L 140.84 10.63 L 146.50 13.01 L 156.79 19.48 L 161.51 23.39 L 169.44 31.44 L 177.51 40.81 L 180.48 44.70 L 189.29 56.54 L 196.45 65.95 L 204.64 76.40 L 211.59 84.81 L 242.72 116.01 L 253.06 123.81 L 263.21 130.86 L 275.38 138.51 L 286.50 144.86 L 295.84 150.03 L 310.14 159.10 L 317.59 165.25 L 326.06 174.19 L 331.76 182.39 L 333.99 186.81 L 338.20 200.06 L 339.55 212.58 L 339.83 225.22 L 339.88 231.55 L 340.05 241.11 L 341.43 256.71 L 343.05 264.97 L 345.71 274.37 L 349.89 284.54 L 362.68 305.40 L 368.50 312.11 L 376.07 319.25 L 389.23 329.03 L 407.35 340.29 L 421.95 348.52 L 431.53 353.68 L 441.03 358.84 L 450.80 364.49 L 465.80 374.54 L 472.64 379.71 L 477.09 383.21 L 484.95 391.60 L 487.08 395.27 L 488.63 399.04 L 489.87 403.66 L 490.12 408.39 L 489.64 411.32 L 486.97 415.99 L 484.88 418.06 L 482.21 420.15 L 478.62 422.36 L 472.57 425.32 L 466.65 427.44 L 463.59 428.13 L 456.64 429.20 L 450.82 429.49 L 445.08 429.44 L 436.16 428.92 L 426.30 427.85 L 418.02 426.72 L 406.89 424.86 L 401.86 423.96 L 394.82 422.62 L 385.02 420.80 L 368.19 417.81 L 359.57 416.36 L 349.68 414.38 L 326.13 409.71 L 314.49 407.54 L 308.04 406.43 L 281.51 402.28 L 272.48 401.10 L 257.53 399.54 L 250.52 398.95 L 234.10 398.36 L 222.39 398.85 L 213.02 400.01 L 197.03 404.23 L 188.08 407.71 L 173.45 415.54 L 164.05 422.78 L 158.50 428.21 L 149.68 440.34 L 146.99 446.67 L 145.79 452.79 L 146.23 458.35 L 147.24 461.06 L 150.74 465.68 L 154.83 468.62 L 159.31 470.63 L 163.78 472.14 L 167.89 473.16 L 171.24 473.87 L 176.27 474.70 L 184.54 475.66 L 194.73 476.63 L 205.32 477.43 L 214.33 478.03 L 221.59 478.44 L 229.09 478.84 L 243.09 479.44 L 254.43 479.79 L 269.25 480.19 L 278.41 480.37 L 285.74 480.53 L 293.24 480.68 L 308.48 481.06 L 331.05 481.44 L 356.03 481.73 L 381.50 482.01 L 402.74 482.35 L 425.63 482.63 L 445.03 482.79 L 466.09 482.97 L 480.74 483.12 L 483.41 483.11 L 507.64 483.43 L 517.63 483.58 L 538.03 483.87 L 557.43 484.11 L 570.00 484.33 L 593.90 484.66 L 615.13 485.00 L 623.71 485.20 L 646.53 485.65 L 662.19 485.94 L 683.98 485.60 L 696.09 484.51 L 714.19 480.80 L 726.18 476.13 L 732.12 472.35 L 740.06 463.91 L 744.37 456.02 L 746.82 449.95 L 748.77 443.80 L 750.54 435.17 L 750.84 422.26 L 748.96 411.34 L 745.23 399.73 L 741.89 392.19 L 736.22 382.40 L 729.32 372.99 L 725.50 368.71 L 715.26 358.92 L 699.04 347.42 L 684.72 339.93 L 675.51 336.01 L 665.05 332.04 L 644.75 325.01 L 630.82 319.51 L 617.43 312.57 L 600.65 301.58 L 587.97 290.96 L 577.73 279.17 L 571.14 269.08 L 563.45 253.78 L 558.60 241.22 L 555.65 230.75 L 553.32 213.86 L 553.35 202.79 L 554.42 192.93 L 559.77 172.35 L 565.83 157.49 L 574.41 138.80 L 582.90 119.53 L 586.82 110.32 L 595.04 93.22 L 597.47 88.98 L 605.24 77.80 L 610.13 72.47 L 614.65 68.40 L 625.26 62.46 L 627.23 61.72 L 642.35 58.61 L 655.02 59.09 L 662.24 60.92 L 667.90 63.38 L 678.20 69.85 L 683.78 74.81 L 689.82 81.01 L 690.86 82.14 L 696.60 89.26 L 702.92 98.61 L 707.69 106.43 L 714.42 118.10 L 721.25 130.18 L 729.23 144.21 L 733.85 152.46 L 759.89 197.65 L 766.36 208.75 L 776.88 226.60 L 785.28 240.63 L 791.56 251.14 L 799.16 263.86 L 801.10 267.04 L 816.03 291.73 L 827.24 310.32 L 834.58 322.46 L 838.56 329.15 L 847.30 343.66 L 854.10 354.90 L 860.28 365.01 L 870.70 382.29 L 873.44 386.85 L 884.57 405.19 L 895.70 423.69 L 900.56 431.76 L 908.95 445.62 L 919.62 462.89 L 926.69 474.46 L 933.21 484.88 L 938.24 493.03 L 943.97 502.32 L 955.70 521.30 L 962.15 531.81 L 976.45 555.36 L 981.59 564.25 L 985.33 571.45 L 990.40 585.50 L 992.50 597.91 L 991.76 610.00 L 986.95 620.16 L 984.96 622.64 L 979.89 627.73 L 971.55 634.26 L 961.36 640.44 L 951.28 644.79 L 944.37 647.11 L 936.12 649.15 L 925.61 650.85 L 907.75 652.05 L 897.94 652.23 L 874.63 651.96 L 864.05 651.66 L 842.31 651.09 L 834.48 650.95 L 820.90 650.59 L 801.33 650.19 L 783.59 649.90 L 771.60 649.65 L 759.61 649.40 L 736.29 648.97 L 715.14 648.54 L 703.56 648.28 L 693.48 648.13 L 678.16 647.84 L 667.84 647.70 L 650.93 647.37 L 627.95 647.01 L 615.71 646.85 Z" fill="none" stroke="black" stroke-width="15"/>
</svg>
