<svg xmlns="http://www.w3.org/2000/svg" width="1000.00" height="651.21" viewBox="0 0 1000.00 651.21">
  <path d="M 352.58 376.61 L 357.52 361.89 L 359.67 355.57 L 366.50 336.31 L 373.41 316.66 L 381.89 292.25 L 387.00 277.56 L 394.90 254.73 L 399.71 240.90 L 407.74 217.46 L 410.62 209.21 L 416.36 192.70 L 418.44 186.78 L 431.91 148.13 L 440.01 125.00 L 443.74 114.46 L 447.86 102.67 L 452.91 88.73 L 457.81 75.85 L 462.75 64.42 L 472.27 47.17 L 484.15 32.16 L 490.92 25.83 L 505.16 16.34 L 524.08 9.20 L 536.64 7.50 L 551.14 8.40 L 558.78 10.16 L 568.84 14.21 L 581.66 22.90 L 588.75 30.43 L 591.54 34.46 L 597.23 47.30 L 598.65 55.23 L 598.70 59.52 L 598.01 65.64 L 596.86 69.86 L 595.26 73.70 L 592.99 77.47 L 588.65 82.37 L 586.28 84.38 L 583.33 86.19 L 579.53 87.81 L 575.77 88.82 L 571.50 89.25 L 566.87 88.99 L 563.08 88.13 L 558.15 86.16 L 555.07 84.34 L 552.59 82.56 L 545.28 75.77 L 539.81 70.80 L 538.67 69.97 L 530.88 65.70 L 525.18 64.22 L 521.11 64.07 L 516.06 64.87 L 512.43 66.24 L 509.25 68.26 L 506.82 70.49 L 504.56 73.29 L 502.14 78.11 L 501.25 81.26 L 500.65 85.74 L 500.66 88.86 L 501.65 95.27 L 505.19 104.58 L 510.47 112.71 L 516.30 119.16 L 518.95 121.51 L 528.26 128.08 L 535.60 131.96 L 536.24 132.20 L 544.29 135.38 L 555.22 138.22 L 570.33 139.96 L 580.35 139.99 L 593.30 138.90 L 613.89 136.03 L 621.16 134.81 L 636.76 132.25 L 655.71 129.02 L 661.56 127.94 L 672.40 126.02 L 691.35 122.79 L 699.51 121.44 L 708.76 119.90 L 720.12 118.40 L 734.92 116.92 L 746.70 116.14 L 757.49 115.78 L 776.16 116.28 L 784.92 117.00 L 793.79 117.97 L 822.27 122.08 L 834.40 124.46 L 855.34 129.10 L 866.50 131.73 L 887.16 136.54 L 904.25 140.71 L 917.21 143.98 L 925.09 146.61 L 932.24 150.63 L 935.24 153.38 L 938.43 157.76 L 939.70 160.45 L 941.12 166.88 L 940.89 169.56 L 939.12 175.43 L 936.04 180.44 L 933.74 183.03 L 930.70 185.66 L 928.51 187.26 L 921.62 191.31 L 918.02 192.88 L 914.04 194.37 L 909.14 195.89 L 904.37 197.23 L 891.11 199.89 L 880.26 201.28 L 867.72 202.01 L 858.31 202.02 L 852.73 201.86 L 840.15 200.88 L 828.86 199.67 L 816.33 197.92 L 801.73 195.54 L 785.47 192.97 L 774.77 191.26 L 758.81 189.06 L 744.40 187.60 L 728.65 187.13 L 718.00 187.67 L 687.13 194.34 L 663.28 206.89 L 654.73 213.49 L 644.08 224.42 L 638.07 232.31 L 632.44 241.80 L 625.85 258.10 L 623.35 268.91 L 622.02 285.44 L 623.09 298.83 L 624.75 307.62 L 627.61 317.29 L 637.53 338.64 L 646.48 353.15 L 653.21 363.82 L 663.16 383.77 L 665.38 392.23 L 666.82 399.73 L 667.46 415.14 L 667.20 417.72 L 663.99 432.23 L 661.34 438.77 L 656.41 447.19 L 651.34 453.48 L 645.54 458.86 L 638.77 463.69 L 627.72 468.94 L 618.63 471.47 L 613.11 472.32 L 602.46 472.59 L 589.04 470.98 L 584.53 470.00 L 575.81 467.98 L 562.27 466.28 L 555.23 466.59 L 551.85 467.15 L 542.50 470.22 L 536.72 473.65 L 532.25 477.67 L 529.46 481.01 L 525.18 489.23 L 523.77 494.00 L 523.14 503.17 L 524.00 509.50 L 526.46 518.55 L 530.91 528.10 L 534.47 533.69 L 540.48 540.97 L 548.66 548.32 L 560.92 554.86 L 575.55 559.66 L 582.69 561.10 L 595.06 562.57 L 608.96 563.16 L 616.99 563.23 L 626.07 563.18 L 634.37 563.25 L 649.40 563.34 L 657.12 563.47 L 672.86 563.84 L 686.82 564.21 L 697.04 564.45 L 708.46 564.77 L 718.93 565.18 L 737.94 565.99 L 760.58 567.20 L 775.99 568.07 L 794.44 569.31 L 807.60 570.22 L 814.21 570.70 L 825.25 571.48 L 834.75 572.15 L 851.01 573.21 L 860.66 573.80 L 866.50 573.95 L 877.52 573.39 L 883.92 571.87 L 887.15 570.59 L 894.44 565.38 L 898.60 559.38 L 900.48 552.80 L 900.78 548.64 L 900.29 542.29 L 899.67 538.87 L 898.94 535.21 L 898.27 525.45 L 899.06 519.31 L 903.53 509.43 L 905.11 507.26 L 908.88 503.23 L 912.46 500.32 L 918.51 496.88 L 923.95 494.92 L 930.30 493.62 L 938.70 493.40 L 944.84 494.19 L 952.85 496.47 L 959.79 499.46 L 968.32 504.91 L 976.29 512.31 L 982.35 520.33 L 987.23 529.62 L 991.19 542.39 L 992.40 551.88 L 992.50 555.40 L 992.13 562.53 L 987.32 582.92 L 983.54 591.48 L 976.23 603.41 L 970.01 611.09 L 963.84 617.02 L 954.79 624.27 L 942.22 631.73 L 930.39 636.83 L 916.01 640.80 L 899.93 643.14 L 877.29 643.71 L 865.59 643.56 L 847.37 643.18 L 846.30 643.19 L 828.71 642.95 L 818.71 642.76 L 798.71 642.55 L 785.06 642.38 L 771.35 642.17 L 749.59 641.80 L 739.49 641.63 L 726.98 641.49 L 706.49 641.06 L 697.28 641.02 L 675.15 640.67 L 663.36 640.38 L 644.32 640.17 L 633.62 639.97 L 610.81 639.71 L 592.68 639.47 L 576.93 639.27 L 562.24 639.06 L 552.38 638.95 L 536.15 638.79 L 531.17 638.67 L 519.90 638.53 L 499.62 638.32 L 486.82 638.09 L 458.24 637.81 L 451.72 637.75 L 434.42 637.60 L 411.93 637.38 L 389.10 637.01 L 370.02 636.87 L 358.56 636.89 L 341.65 636.82 L 319.56 636.67 L 305.32 636.74 L 293.47 636.68 L 276.39 636.60 L 257.94 636.59 L 247.32 636.53 L 218.77 636.36 L 190.63 636.37 L 171.37 636.37 L 153.29 636.34 L 131.34 636.38 L 110.54 636.71 L 99.00 636.85 L 88.49 637.04 L 78.25 637.23 L 67.21 637.42 L 59.20 637.46 L 49.01 637.58 L 43.14 637.59 L 37.38 637.57 L 33.07 637.52 L 25.96 636.99 L 21.97 636.17 L 17.90 634.77 L 13.89 632.35 L 12.01 630.86 L 10.28 629.02 L 8.78 626.81 L 7.87 624.80 L 7.50 621.27 L 8.32 617.01 L 9.81 613.90 L 12.65 609.80 L 16.12 606.37 L 26.67 600.09 L 31.54 598.19 L 39.28 595.85 L 47.42 593.69 L 56.40 591.89 L 66.17 590.51 L 78.18 589.52 L 90.91 588.91 L 98.36 588.78 L 103.46 588.72 L 111.16 588.75 L 129.02 589.26 L 145.71 590.07 L 154.30 590.50 L 166.88 591.22 L 174.71 591.60 L 187.77 592.27 L 195.91 592.58 L 212.24 592.71 L 221.42 592.64 L 236.78 592.23 L 245.68 591.09 L 263.23 585.53 L 269.07 580.90 L 273.20 577.01 L 276.73 572.39 L 282.27 562.22 L 285.96 553.53 L 289.66 543.60 L 294.19 531.98 L 296.33 526.36 L 303.47 507.30 L 309.09 492.50 L 311.79 485.46 L 316.04 474.55 L 321.49 460.70 L 325.55 450.20 L 328.88 441.53 L 335.89 422.66 L 342.99 403.67 Z" fill="none" stroke="black" stroke-width="15"/>
</svg>
