<svg xmlns="http://www.w3.org/2000/svg" width="1000.00" height="580.26" viewBox="0 0 1000.00 580.26">
  <path d="M 678.72 529.94 L 668.21 522.34 L 658.07 515.42 L 647.76 508.50 L 641.12 504.01 L 626.91 494.38 L 607.11 481.19 L 601.64 477.74 L 585.07 467.46 L 566.81 455.98 L 557.37 449.71 L 549.62 444.29 L 533.13 431.39 L 528.08 426.84 L 521.58 420.07 L 513.93 409.47 L 510.08 401.93 L 505.13 385.61 L 503.44 371.39 L 503.16 359.96 L 503.86 345.89 L 505.14 333.67 L 505.60 328.99 L 506.07 319.59 L 505.72 306.29 L 504.07 293.32 L 501.32 282.95 L 499.00 276.66 L 492.10 263.20 L 487.25 256.14 L 477.40 244.54 L 471.98 239.16 L 464.98 232.69 L 458.05 226.27 L 448.57 217.11 L 442.91 211.39 L 432.15 199.82 L 423.78 189.87 L 418.98 180.88 L 418.08 176.42 L 418.01 171.13 L 418.51 167.47 L 419.11 165.18 L 421.01 160.90 L 423.33 157.41 L 428.06 152.81 L 434.94 149.27 L 442.82 147.06 L 447.75 146.32 L 452.11 145.77 L 457.37 145.07 L 462.73 143.86 L 468.18 141.73 L 473.35 138.43 L 475.83 136.23 L 477.97 133.94 L 480.31 130.73 L 482.22 126.85 L 482.52 125.76 L 482.45 120.42 L 479.49 115.40 L 476.71 112.43 L 474.48 110.57 L 470.98 108.02 L 467.67 105.97 L 462.57 103.31 L 456.57 100.84 L 448.75 98.44 L 441.06 96.55 L 435.04 95.34 L 427.72 94.23 L 420.25 93.64 L 414.51 93.61 L 408.55 93.99 L 401.81 94.91 L 396.33 96.01 L 390.87 97.51 L 383.45 100.21 L 369.60 107.58 L 358.63 115.81 L 350.76 123.37 L 346.00 128.82 L 338.49 138.53 L 331.22 148.74 L 322.27 161.11 L 320.20 163.80 L 307.46 180.17 L 300.81 188.53 L 292.96 198.31 L 286.21 206.85 L 278.74 216.15 L 272.42 224.11 L 264.24 234.29 L 255.36 245.24 L 249.30 252.62 L 242.64 260.70 L 233.53 271.88 L 228.02 278.62 L 218.15 290.68 L 210.13 300.57 L 202.12 310.58 L 196.50 317.49 L 190.23 325.16 L 180.78 336.52 L 173.74 344.96 L 165.39 354.92 L 153.31 370.59 L 145.62 383.43 L 142.62 390.25 L 139.36 402.76 L 139.04 408.29 L 139.31 416.07 L 139.83 421.17 L 144.16 432.80 L 151.99 441.91 L 158.26 445.73 L 162.77 447.79 L 171.56 450.38 L 178.53 450.99 L 185.81 451.14 L 194.46 451.29 L 199.31 451.63 L 204.17 452.49 L 209.47 454.35 L 214.23 457.03 L 220.04 462.11 L 224.54 468.73 L 227.08 476.37 L 227.21 481.89 L 226.63 484.64 L 225.59 487.40 L 220.83 494.40 L 216.19 498.43 L 211.62 501.14 L 209.55 502.13 L 201.17 504.81 L 192.67 505.73 L 186.98 505.65 L 182.87 505.28 L 168.72 502.47 L 162.51 500.53 L 156.86 498.45 L 147.97 494.72 L 138.25 490.11 L 124.99 483.35 L 112.50 475.71 L 102.81 468.82 L 96.44 463.81 L 89.10 457.30 L 83.69 452.14 L 76.08 444.33 L 65.69 431.90 L 59.70 423.46 L 57.05 419.06 L 52.48 410.46 L 47.68 399.99 L 43.49 389.16 L 40.43 379.71 L 39.40 376.27 L 36.24 363.93 L 32.70 345.79 L 31.39 337.53 L 28.90 319.93 L 27.17 307.76 L 25.69 296.49 L 23.27 279.40 L 20.65 261.29 L 19.38 252.68 L 16.44 233.50 L 14.21 220.04 L 12.71 211.39 L 11.41 203.65 L 9.65 192.10 L 7.76 175.62 L 7.50 168.12 L 8.88 153.91 L 10.92 145.42 L 18.98 127.22 L 25.54 117.83 L 32.44 110.14 L 47.64 99.20 L 55.24 95.29 L 64.71 91.21 L 77.86 86.54 L 86.80 83.72 L 103.03 79.23 L 118.54 75.45 L 123.06 74.49 L 141.76 70.94 L 164.34 67.59 L 179.52 65.87 L 190.01 64.93 L 198.59 64.40 L 212.04 63.65 L 222.65 62.94 L 231.28 62.30 L 239.61 61.49 L 253.92 59.29 L 263.41 57.31 L 268.15 56.17 L 281.22 52.47 L 295.05 47.84 L 309.46 42.05 L 319.27 37.66 L 331.82 32.39 L 342.40 28.95 L 350.53 27.36 L 366.46 27.43 L 375.04 28.61 L 385.17 30.53 L 394.29 32.54 L 402.36 34.19 L 408.66 35.34 L 421.23 36.89 L 434.31 36.78 L 448.97 33.14 L 458.20 28.66 L 466.27 23.71 L 476.79 16.86 L 482.86 13.35 L 492.51 9.43 L 503.82 7.50 L 509.52 7.76 L 521.44 10.35 L 524.84 11.54 L 538.11 18.59 L 547.38 26.68 L 552.44 33.28 L 554.91 37.17 L 562.67 50.72 L 567.52 57.66 L 571.13 61.80 L 584.94 74.46 L 591.37 79.58 L 599.77 85.43 L 602.62 87.21 L 613.07 93.16 L 623.20 98.21 L 633.61 103.08 L 640.13 105.98 L 649.15 110.05 L 657.47 113.74 L 668.44 118.53 L 682.94 124.85 L 685.54 125.95 L 704.95 134.43 L 717.25 139.81 L 727.88 144.50 L 736.78 148.40 L 751.98 155.15 L 763.64 160.26 L 772.71 164.26 L 784.50 169.43 L 796.28 174.59 L 809.80 180.60 L 823.55 186.66 L 834.59 191.62 L 850.25 198.76 L 864.13 205.04 L 879.80 212.40 L 887.03 215.79 L 897.15 220.61 L 912.95 228.31 L 930.32 237.14 L 941.10 242.97 L 948.19 247.04 L 963.21 257.15 L 968.54 261.46 L 977.67 270.41 L 985.10 281.13 L 988.04 287.12 L 991.27 296.62 L 992.50 305.79 L 991.79 316.45 L 989.28 325.98 L 985.16 335.00 L 980.89 341.46 L 975.38 348.08 L 968.43 354.52 L 959.51 361.21 L 951.99 365.85 L 942.79 371.12 L 932.26 377.35 L 923.31 383.35 L 908.46 394.67 L 901.71 400.08 L 892.85 407.11 L 882.67 415.25 L 873.83 422.56 L 861.30 433.63 L 849.51 444.63 L 844.72 449.23 L 835.47 458.03 L 831.57 461.81 L 829.42 463.93 L 821.56 473.36 L 819.21 477.60 L 817.39 482.55 L 816.57 488.32 L 817.49 496.71 L 820.12 502.19 L 823.70 506.79 L 827.50 511.43 L 830.99 517.06 L 832.12 520.09 L 832.63 523.26 L 831.96 529.94 L 830.49 535.05 L 830.02 536.32 L 828.38 540.02 L 824.67 546.00 L 817.63 553.08 L 812.44 557.52 L 802.16 564.54 L 794.43 567.99 L 780.46 571.84 L 774.29 572.68 L 758.82 572.76 L 746.52 570.75 L 729.40 564.06 L 725.28 561.88 L 713.82 554.65 L 707.82 550.65 L 699.09 544.76 Z" fill="none" stroke="black" stroke-width="15"/>
</svg>
