<svg xmlns="http://www.w3.org/2000/svg" width="1000.00" height="630.46" viewBox="0 0 1000.00 630.46">
  <path d="M 160.42 447.67 L 148.51 455.88 L 143.49 459.33 L 137.27 463.59 L 131.54 467.55 L 118.71 476.41 L 108.00 483.72 L 100.77 488.73 L 91.03 495.43 L 81.10 502.24 L 67.93 511.31 L 57.37 518.57 L 51.35 522.72 L 43.72 527.83 L 40.59 529.89 L 39.48 530.59 L 35.95 532.70 L 31.41 535.22 L 28.70 536.54 L 24.19 538.18 L 20.69 538.87 L 14.78 538.68 L 12.57 537.94 L 10.65 536.66 L 9.10 534.93 L 8.09 532.90 L 7.50 529.73 L 7.78 526.31 L 8.41 523.42 L 9.47 519.70 L 10.26 517.49 L 11.38 514.49 L 12.97 510.70 L 14.81 506.52 L 17.25 501.41 L 19.94 495.94 L 22.53 490.68 L 23.33 489.10 L 27.95 479.60 L 31.44 472.51 L 33.60 468.04 L 37.47 460.40 L 40.88 454.10 L 47.36 442.71 L 52.97 433.88 L 55.96 429.44 L 61.87 421.09 L 66.07 415.50 L 73.03 406.49 L 80.11 398.17 L 86.62 391.13 L 92.38 385.17 L 101.44 375.99 L 107.15 370.32 L 113.67 363.87 L 121.54 356.17 L 126.63 351.20 L 131.23 346.72 L 140.49 337.83 L 147.50 331.07 L 154.03 324.90 L 159.98 319.29 L 169.78 310.43 L 182.56 298.49 L 188.98 291.99 L 194.34 285.80 L 198.43 279.97 L 202.82 271.25 L 207.62 260.87 L 215.82 249.75 L 228.05 240.31 L 236.37 236.12 L 254.17 230.05 L 262.29 228.54 L 273.58 226.49 L 287.64 221.07 L 290.58 219.46 L 302.03 212.62 L 311.00 206.71 L 317.13 202.50 L 336.24 187.82 L 348.14 178.68 L 350.79 176.63 L 360.80 169.04 L 366.87 164.49 L 375.02 158.59 L 380.51 154.69 L 387.51 149.98 L 400.25 142.00 L 411.37 135.81 L 420.46 131.30 L 429.76 127.14 L 440.03 123.10 L 452.06 118.80 L 467.24 113.46 L 476.89 110.07 L 484.94 107.24 L 492.17 104.68 L 501.82 101.29 L 519.57 95.07 L 537.42 88.76 L 543.87 86.50 L 552.75 83.32 L 560.02 80.75 L 569.72 77.31 L 580.25 73.57 L 588.35 70.64 L 595.62 68.08 L 605.37 64.59 L 617.54 60.28 L 628.11 56.48 L 641.11 51.86 L 662.26 44.32 L 677.68 38.83 L 687.47 35.34 L 694.31 32.88 L 702.80 29.95 L 705.95 28.87 L 719.00 24.30 L 729.53 20.55 L 734.76 18.65 L 746.01 14.60 L 753.63 12.03 L 762.76 9.38 L 770.49 7.83 L 775.51 7.50 L 781.08 7.94 L 788.00 10.21 L 788.69 10.54 L 793.08 13.24 L 797.49 16.97 L 800.02 19.22 L 804.43 23.34 L 806.81 25.40 L 811.16 28.50 L 815.10 30.38 L 820.44 31.70 L 823.66 32.04 L 829.86 31.88 L 836.04 30.75 L 840.55 29.40 L 843.56 28.37 L 849.42 26.07 L 859.21 22.24 L 863.34 20.85 L 868.00 19.70 L 876.38 18.77 L 882.78 19.49 L 888.18 20.95 L 895.06 23.96 L 901.43 28.09 L 905.94 31.97 L 908.72 34.99 L 911.37 38.31 L 914.97 43.23 L 918.87 48.77 L 921.87 53.06 L 928.08 61.88 L 935.58 72.05 L 939.92 77.73 L 943.56 82.45 L 952.45 93.76 L 960.73 104.11 L 965.22 109.64 L 970.21 115.80 L 976.14 123.26 L 981.15 130.59 L 982.35 132.43 L 985.77 138.13 L 988.49 143.06 L 990.57 147.31 L 992.06 151.78 L 992.50 157.33 L 991.85 162.27 L 989.18 168.52 L 986.99 171.48 L 985.98 172.43 L 982.38 175.61 L 978.61 177.73 L 975.06 178.86 L 969.95 179.39 L 967.26 179.24 L 966.97 179.20 L 964.28 178.71 L 959.66 177.18 L 957.50 176.15 L 955.08 174.72 L 949.14 169.90 L 947.85 168.60 L 944.86 165.24 L 941.67 161.10 L 939.47 158.01 L 937.31 154.68 L 919.98 126.05 L 914.46 120.34 L 909.12 116.48 L 906.07 114.82 L 896.41 112.41 L 892.31 112.18 L 886.90 112.57 L 883.59 113.12 L 876.45 114.95 L 871.31 116.75 L 866.85 118.53 L 856.58 123.06 L 849.08 126.36 L 846.99 127.27 L 842.25 129.36 L 830.72 134.15 L 824.90 136.44 L 817.63 139.06 L 810.11 141.48 L 803.70 143.40 L 797.77 145.07 L 789.71 147.21 L 782.18 149.15 L 773.09 151.45 L 765.32 153.29 L 755.21 155.62 L 738.25 159.48 L 728.48 161.75 L 720.94 163.54 L 711.03 165.91 L 701.02 168.28 L 685.72 172.30 L 678.10 175.02 L 665.82 181.43 L 653.71 192.23 L 651.51 194.95 L 645.02 205.85 L 642.79 212.38 L 641.41 222.60 L 640.96 235.98 L 640.91 238.91 L 641.08 245.55 L 642.48 258.65 L 645.08 267.78 L 647.97 274.02 L 653.84 283.68 L 658.99 290.37 L 665.35 297.14 L 669.37 300.78 L 676.10 306.03 L 684.63 311.49 L 698.76 318.37 L 706.82 321.55 L 712.07 323.31 L 720.51 325.80 L 731.30 328.98 L 740.52 331.75 L 749.79 334.56 L 756.76 336.68 L 770.05 340.65 L 777.07 342.77 L 783.64 344.76 L 793.85 347.85 L 807.24 351.91 L 815.73 354.54 L 823.39 357.14 L 826.53 358.30 L 833.56 361.35 L 841.94 366.33 L 848.88 372.31 L 852.31 376.20 L 855.72 381.32 L 857.50 385.19 L 858.64 389.22 L 859.20 393.26 L 859.32 400.09 L 858.26 406.50 L 856.68 411.21 L 853.99 416.48 L 850.27 423.82 L 847.47 431.38 L 847.33 431.82 L 846.30 437.01 L 846.00 442.19 L 847.17 450.71 L 848.37 454.74 L 851.11 460.94 L 854.07 465.72 L 857.46 469.86 L 881.69 487.73 L 888.73 491.32 L 898.81 496.02 L 904.37 498.46 L 915.00 503.35 L 922.43 507.03 L 930.46 511.33 L 938.20 515.88 L 946.66 522.32 L 948.45 524.19 L 951.84 528.62 L 954.72 534.48 L 955.72 538.31 L 955.90 543.39 L 955.27 549.16 L 954.15 554.45 L 952.90 558.32 L 951.07 562.60 L 948.90 566.93 L 945.78 572.55 L 944.40 574.72 L 940.13 581.68 L 937.89 584.69 L 932.03 593.14 L 928.16 597.94 L 922.70 603.84 L 920.98 605.53 L 915.45 610.26 L 905.46 616.64 L 899.65 619.37 L 891.20 622.06 L 884.63 622.86 L 878.43 622.96 L 873.01 622.72 L 864.11 621.65 L 851.92 619.03 L 839.80 615.24 L 831.15 611.78 L 825.24 609.06 L 819.39 606.04 L 811.05 601.20 L 801.03 594.74 L 798.56 592.98 L 791.74 588.12 L 777.34 576.66 L 770.31 570.59 L 767.98 568.48 L 758.85 559.95 L 752.64 553.86 L 748.27 549.30 L 741.31 541.67 L 733.03 531.90 L 727.69 524.92 L 723.44 518.99 L 716.52 508.62 L 709.69 497.27 L 699.18 479.74 L 693.16 469.89 L 687.23 459.99 L 677.78 444.40 L 669.41 432.00 L 657.89 417.71 L 648.55 408.16 L 642.50 402.75 L 636.61 398.07 L 629.01 392.79 L 621.76 388.43 L 612.84 383.60 L 602.95 378.85 L 594.44 375.09 L 577.29 367.97 L 564.66 363.12 L 557.54 360.56 L 551.11 358.43 L 535.62 354.26 L 517.47 352.13 L 507.38 352.55 L 493.07 354.95 L 481.19 358.87 L 469.41 363.42 L 457.88 368.30 L 449.45 372.01 L 447.90 372.72 L 435.70 378.30 L 424.18 383.53 L 413.43 388.35 L 405.68 391.76 L 398.71 394.76 L 381.41 401.50 L 370.14 404.87 L 358.53 407.71 L 346.91 410.35 L 334.27 413.06 L 318.71 416.07 L 309.90 417.63 L 301.73 419.09 L 291.61 420.78 L 286.84 421.50 L 282.46 422.02 L 278.17 422.43 L 272.27 422.49 L 270.65 422.37 L 267.72 422.13 L 264.79 421.74 L 259.53 419.73 L 258.10 418.73 L 256.06 416.48 L 255.35 415.07 L 254.62 412.40 L 254.45 410.99 L 254.30 408.06 L 254.06 405.38 L 253.73 403.44 L 252.91 401.06 L 251.90 399.32 L 249.08 396.79 L 247.60 396.18 L 245.35 395.68 L 242.86 395.62 L 241.45 395.75 L 239.31 396.13 L 237.31 396.65 L 235.86 397.16 L 233.05 398.33 L 229.91 399.95 L 227.88 401.16 L 226.91 401.76 L 224.06 403.61 L 221.17 405.57 L 217.03 408.52 L 211.14 412.67 L 206.81 415.73 L 203.24 418.23 L 197.98 421.88 L 195.57 423.53 L 185.74 430.29 L 180.43 433.95 L 176.67 436.50 L 171.90 439.81 L 166.50 443.51 Z" fill="none" stroke="black" stroke-width="15"/>
</svg>
