<svg xmlns="http://www.w3.org/2000/svg" width="1000.00" height="630.41" viewBox="0 0 1000.00 630.41">
  <path d="M 725.40 542.98 L 703.95 549.16 L 681.02 555.75 L 668.07 559.51 L 656.52 562.84 L 631.72 570.02 L 622.51 572.69 L 609.41 576.45 L 581.56 584.46 L 545.68 595.12 L 537.65 597.53 L 522.91 601.87 L 494.83 610.12 L 472.13 616.71 L 464.48 618.80 L 451.29 621.85 L 443.39 622.86 L 435.55 622.91 L 428.16 622.02 L 419.73 619.27 L 414.18 616.23 L 406.55 609.86 L 401.40 602.58 L 396.62 593.80 L 392.01 585.49 L 384.75 573.78 L 377.36 563.64 L 366.43 548.15 L 361.76 541.41 L 354.68 531.11 L 349.62 523.75 L 343.82 515.30 L 334.33 501.44 L 318.08 477.73 L 312.93 470.22 L 307.06 461.69 L 301.83 453.95 L 289.12 435.27 L 283.72 427.14 L 277.11 416.90 L 271.23 407.44 L 263.63 394.48 L 251.97 373.36 L 247.19 364.27 L 238.75 348.27 L 230.89 333.20 L 227.81 327.37 L 219.52 310.74 L 212.94 297.60 L 208.31 288.20 L 201.73 274.98 L 193.35 257.88 L 187.91 246.84 L 182.23 235.89 L 170.25 214.23 L 162.67 202.52 L 153.26 188.73 L 141.54 173.18 L 127.70 157.42 L 115.17 144.55 L 102.17 131.61 L 95.07 124.67 L 81.75 112.05 L 66.37 97.58 L 55.69 87.57 L 47.80 80.34 L 34.58 68.18 L 30.11 64.11 L 24.38 58.88 L 15.05 49.95 L 11.04 44.68 L 9.66 42.20 L 7.50 35.10 L 7.65 30.32 L 9.76 25.26 L 10.99 23.67 L 13.38 21.44 L 16.17 19.59 L 21.30 17.30 L 27.78 15.46 L 30.82 14.86 L 34.81 14.16 L 38.72 13.55 L 42.94 12.92 L 52.40 11.58 L 58.74 10.85 L 65.70 10.02 L 76.35 9.13 L 84.96 8.51 L 97.50 7.90 L 112.23 7.56 L 120.15 7.50 L 128.46 7.67 L 139.91 8.02 L 148.78 8.49 L 158.91 9.25 L 162.99 9.57 L 172.33 10.35 L 186.24 11.83 L 202.73 13.82 L 212.87 15.21 L 234.65 18.52 L 258.24 22.57 L 271.37 25.01 L 292.13 28.80 L 309.52 31.95 L 320.76 34.03 L 340.11 37.53 L 356.86 40.53 L 371.17 42.71 L 392.31 45.48 L 394.98 45.82 L 413.75 48.08 L 424.52 49.38 L 436.77 50.82 L 454.21 52.71 L 486.55 54.96 L 500.51 55.43 L 513.14 55.68 L 534.31 56.01 L 549.68 56.14 L 562.38 56.23 L 579.79 56.39 L 594.06 56.46 L 605.21 57.21 L 610.87 58.36 L 618.21 61.05 L 625.90 65.78 L 626.61 66.47 L 630.53 70.87 L 632.89 75.77 L 634.44 83.51 L 634.76 88.75 L 634.30 93.39 L 632.22 100.25 L 629.58 106.33 L 623.42 116.78 L 618.59 123.38 L 610.61 133.00 L 603.44 140.34 L 597.96 145.14 L 587.75 152.76 L 576.11 159.79 L 567.79 164.01 L 552.53 170.16 L 543.02 173.14 L 525.07 177.46 L 513.73 179.22 L 498.85 179.95 L 484.57 179.50 L 469.18 178.12 L 461.40 177.24 L 451.27 175.92 L 436.57 173.67 L 422.88 171.40 L 410.22 169.19 L 400.87 167.63 L 388.68 165.73 L 371.79 163.67 L 356.41 162.76 L 347.16 163.00 L 342.78 163.39 L 324.10 167.01 L 310.72 172.73 L 302.97 177.88 L 297.49 182.84 L 290.66 191.35 L 285.65 200.69 L 282.55 211.64 L 281.44 219.89 L 281.27 232.91 L 282.30 242.22 L 283.76 249.80 L 287.52 262.82 L 288.84 266.49 L 295.34 280.09 L 300.11 288.16 L 307.77 300.18 L 314.13 310.03 L 317.60 315.45 L 322.76 323.44 L 332.09 337.31 L 343.16 351.70 L 359.75 367.95 L 366.74 372.77 L 379.70 379.05 L 387.34 381.03 L 396.14 381.66 L 413.95 378.29 L 424.30 373.96 L 434.93 367.66 L 447.76 357.16 L 454.78 350.61 L 464.97 341.10 L 472.53 334.00 L 480.78 326.09 L 484.09 322.97 L 502.10 308.00 L 516.29 298.81 L 519.32 297.19 L 544.57 288.52 L 555.12 286.61 L 565.83 285.33 L 580.32 284.29 L 592.46 283.77 L 618.08 282.69 L 636.65 282.13 L 656.63 281.55 L 670.35 281.15 L 690.64 280.72 L 702.08 280.44 L 716.97 280.02 L 740.16 279.23 L 766.02 278.15 L 785.68 277.26 L 809.34 276.06 L 823.83 275.34 L 839.73 274.59 L 855.71 274.07 L 878.45 274.30 L 896.98 275.63 L 912.08 278.34 L 928.09 283.79 L 950.64 300.01 L 953.60 303.33 L 962.31 317.61 L 965.37 326.49 L 969.20 339.20 L 971.94 348.01 L 976.99 363.53 L 982.46 380.21 L 988.42 398.76 L 990.27 405.71 L 991.91 414.23 L 992.50 421.19 L 992.34 429.82 L 988.78 441.72 L 985.44 447.82 L 980.15 454.65 L 971.50 462.25 L 964.52 466.60 L 951.08 473.42 L 941.59 477.90 L 927.19 483.88 L 918.78 486.92 L 904.27 491.49 L 887.04 496.57 L 871.35 500.84 L 846.47 507.94 L 826.34 513.78 L 813.78 517.45 L 802.24 520.79 L 792.80 523.46 L 778.53 527.63 L 755.51 534.23 Z" fill="none" stroke="black" stroke-width="15"/>
</svg>
