<svg xmlns="http://www.w3.org/2000/svg" width="1000.00" height="501.27" viewBox="0 0 1000.00 501.27">
  <path d="M 642.74 7.94 L 649.02 7.99 L 663.34 8.11 L 671.37 8.18 L 685.17 8.29 L 689.26 8.32 L 699.14 8.36 L 709.86 8.49 L 725.72 8.63 L 741.75 8.74 L 751.91 8.83 L 760.43 8.86 L 772.41 8.96 L 781.00 9.06 L 793.96 9.17 L 807.76 9.36 L 817.34 9.52 L 818.21 9.50 L 826.94 9.58 L 841.79 9.77 L 849.68 9.84 L 856.67 9.91 L 865.44 10.03 L 876.85 10.11 L 890.20 10.22 L 904.59 10.40 L 912.56 10.54 L 922.30 10.66 L 932.03 10.96 L 946.89 11.88 L 964.91 18.40 L 972.20 23.83 L 977.03 29.00 L 985.90 41.61 L 991.05 51.37 L 992.50 56.61 L 992.22 67.07 L 988.72 75.97 L 985.75 80.37 L 977.86 87.86 L 974.58 89.84 L 966.26 92.72 L 961.70 93.32 L 959.64 93.36 L 954.25 93.11 L 942.30 91.40 L 934.27 89.90 L 924.81 87.94 L 916.24 86.17 L 910.62 85.13 L 905.53 84.30 L 891.72 82.93 L 884.97 82.81 L 875.53 83.54 L 869.55 84.86 L 857.18 90.61 L 849.13 97.32 L 841.47 105.08 L 833.43 111.40 L 821.91 115.87 L 816.18 116.76 L 805.02 115.87 L 804.41 115.73 L 794.83 111.97 L 787.22 108.42 L 780.22 105.14 L 779.64 104.83 L 770.69 100.71 L 764.12 98.52 L 750.92 98.01 L 747.81 98.51 L 738.48 101.36 L 730.46 105.93 L 725.12 110.35 L 715.61 120.09 L 705.18 129.69 L 700.54 132.77 L 695.75 135.13 L 689.75 137.23 L 684.84 138.37 L 676.18 139.33 L 669.32 139.04 L 666.78 138.66 L 657.39 135.65 L 651.51 131.98 L 648.00 128.59 L 645.03 124.58 L 640.65 116.33 L 638.05 111.14 L 635.01 105.17 L 631.66 98.67 L 628.42 92.72 L 624.81 86.97 L 619.75 81.60 L 612.85 77.30 L 603.37 74.47 L 596.00 73.87 L 588.14 74.73 L 579.13 77.66 L 570.84 81.42 L 563.36 84.84 L 552.50 90.66 L 542.26 98.01 L 534.05 104.90 L 528.96 109.93 L 522.26 117.56 L 519.95 120.44 L 514.35 128.09 L 509.23 137.88 L 504.77 149.92 L 501.56 162.39 L 500.01 170.63 L 499.17 179.70 L 499.19 185.84 L 501.27 201.23 L 503.26 210.20 L 504.79 217.07 L 506.78 226.57 L 508.76 235.85 L 511.53 251.51 L 513.61 264.87 L 513.92 274.20 L 512.47 279.47 L 508.39 287.01 L 504.38 293.51 L 497.61 304.59 L 496.45 306.45 L 487.78 319.80 L 484.46 324.15 L 482.03 326.87 L 477.09 331.65 L 474.48 333.75 L 468.00 336.86 L 461.53 337.17 L 455.43 335.78 L 449.05 332.91 L 441.83 328.07 L 437.03 324.81 L 430.91 321.12 L 426.74 318.80 L 422.82 316.70 L 415.27 312.62 L 411.17 310.36 L 401.11 304.81 L 393.38 300.57 L 386.01 296.51 L 381.37 293.98 L 370.22 287.74 L 358.77 281.25 L 352.07 277.32 L 342.95 271.67 L 337.74 267.99 L 331.40 262.22 L 325.84 255.56 L 320.09 246.32 L 317.62 241.37 L 314.10 233.48 L 310.85 225.96 L 308.51 220.99 L 307.01 218.37 L 304.87 215.34 L 302.77 213.19 L 299.62 211.04 L 297.40 210.28 L 293.30 210.05 L 288.30 211.97 L 286.80 213.40 L 285.48 215.06 L 284.29 217.55 L 283.70 219.97 L 283.54 223.22 L 283.68 224.72 L 284.83 229.70 L 285.92 232.80 L 287.32 236.36 L 289.69 242.34 L 290.98 245.74 L 292.45 249.76 L 294.72 256.30 L 297.34 264.84 L 301.00 277.82 L 302.97 285.01 L 303.41 286.69 L 305.19 294.31 L 306.20 299.76 L 307.22 311.73 L 307.09 318.86 L 306.45 326.79 L 304.09 337.92 L 300.48 346.72 L 296.63 353.48 L 289.78 363.45 L 283.21 372.22 L 273.42 382.96 L 268.54 387.52 L 261.05 393.74 L 251.88 400.38 L 243.52 405.71 L 234.20 411.11 L 221.11 418.07 L 213.38 421.85 L 205.49 425.30 L 198.84 427.62 L 192.75 429.37 L 182.55 431.72 L 174.75 433.04 L 160.43 433.90 L 153.26 433.74 L 141.35 432.51 L 135.83 431.50 L 123.41 428.14 L 113.42 425.00 L 107.24 423.03 L 101.14 421.04 L 93.31 418.49 L 84.82 415.80 L 78.62 414.07 L 63.19 410.50 L 46.18 410.26 L 38.79 412.91 L 33.80 415.95 L 27.91 421.07 L 25.25 423.98 L 19.60 431.07 L 14.14 439.76 L 11.21 445.90 L 8.81 452.88 L 7.81 457.55 L 7.50 461.66 L 8.99 470.46 L 10.12 473.13 L 11.96 476.57 L 16.59 482.35 L 19.48 484.80 L 23.07 487.20 L 29.82 490.40 L 34.22 491.87 L 42.54 493.49 L 47.44 493.77 L 53.75 493.64 L 60.76 493.08 L 66.68 492.29 L 78.90 489.93 L 85.81 488.44 L 99.93 485.18 L 105.14 483.84 L 111.83 482.08 L 117.92 480.40 L 128.76 477.16 L 134.26 475.48 L 143.24 472.52 L 148.72 470.63 L 159.89 466.57 L 166.89 463.92 L 178.83 459.35 L 184.39 457.00 L 192.83 453.45 L 206.90 447.09 L 218.74 441.20 L 229.11 435.66 L 234.62 432.62 L 240.80 429.12 L 249.02 424.39 L 256.56 419.98 L 265.48 414.75 L 275.84 408.69 L 287.58 401.86 L 288.25 401.47 L 299.35 394.86 L 309.10 389.12 L 316.07 385.00 L 321.91 381.59 L 325.67 379.44 L 336.96 372.76 L 344.01 368.63 L 354.60 362.38 L 363.08 357.42 L 375.19 350.33 L 388.70 342.37 L 395.10 338.60 L 402.24 334.37 L 411.53 328.94 L 422.29 322.63 L 433.73 315.94 L 435.17 315.10 L 446.35 306.75 L 451.18 300.51 L 457.02 288.23 L 459.74 281.13 L 462.89 271.80 L 464.65 265.57 L 468.22 248.64 L 470.43 229.42 L 470.89 213.96 L 470.49 203.31 L 470.23 197.60 L 469.71 184.55 L 469.15 173.11 L 468.09 158.42 L 467.09 144.10 L 466.61 137.23 L 466.29 132.19 L 466.19 125.77 L 466.59 119.53 L 467.41 115.36 L 468.74 111.28 L 471.13 106.58 L 473.50 103.55 L 474.81 102.34 L 477.99 100.41 L 480.59 99.67 L 486.47 98.84 L 491.46 97.30 L 493.33 96.13 L 496.06 93.67 L 498.52 90.00 L 500.03 86.16 L 500.62 83.02 L 500.72 80.56 L 500.55 76.63 L 500.36 73.85 L 500.27 67.51 L 500.54 62.99 L 501.34 58.39 L 504.24 51.00 L 506.02 47.98 L 510.00 42.50 L 517.04 34.85 L 527.52 26.47 L 535.25 21.71 L 546.95 15.90 L 554.21 13.33 L 558.62 12.01 L 571.27 9.24 L 581.57 8.21 L 587.19 7.81 L 595.69 7.50 L 601.66 7.54 L 612.70 7.67 L 620.14 7.74 Z" fill="none" stroke="black" stroke-width="15"/>
</svg>
