<svg xmlns="http://www.w3.org/2000/svg" width="1000.00" height="671.03" viewBox="0 0 1000.00 671.03">
  <path d="M 344.83 11.19 L 318.55 12.22 L 275.74 14.38 L 242.80 16.06 L 216.44 17.47 L 193.57 18.73 L 174.48 19.80 L 161.37 20.67 L 149.84 21.48 L 135.00 22.57 L 120.40 23.91 L 113.12 24.73 L 94.58 27.40 L 77.08 31.28 L 68.62 33.93 L 63.16 35.92 L 57.94 38.17 L 48.60 43.59 L 43.26 47.79 L 39.44 51.81 L 34.02 60.63 L 31.75 69.43 L 31.45 73.61 L 31.96 78.65 L 34.28 87.24 L 36.79 93.10 L 40.81 100.67 L 44.46 107.17 L 48.69 114.69 L 52.66 122.44 L 54.47 126.48 L 58.28 139.23 L 57.61 153.50 L 54.82 160.61 L 51.32 166.87 L 48.50 171.31 L 41.12 181.88 L 35.20 190.69 L 28.69 200.86 L 24.22 208.40 L 19.02 218.95 L 14.21 231.35 L 10.23 246.40 L 8.88 255.98 L 7.50 269.90 L 7.52 280.96 L 8.42 291.13 L 11.72 308.12 L 15.62 320.89 L 21.21 334.52 L 28.99 349.00 L 31.42 352.88 L 38.61 363.19 L 46.04 372.37 L 53.44 380.26 L 68.09 393.54 L 74.02 398.16 L 96.80 412.68 L 107.17 418.24 L 123.92 426.73 L 136.16 432.79 L 158.62 443.69 L 171.29 450.03 L 189.18 458.77 L 212.75 470.00 L 223.34 475.01 L 238.04 481.99 L 262.33 493.57 L 269.13 496.89 L 294.62 509.32 L 319.38 521.49 L 333.22 528.38 L 345.81 534.61 L 368.14 545.68 L 383.58 553.40 L 414.71 569.00 L 428.79 576.14 L 443.95 583.80 L 459.46 591.64 L 483.33 603.82 L 502.94 613.72 L 530.76 628.22 L 536.89 631.40 L 561.66 644.46 L 571.11 649.23 L 586.78 656.32 L 589.16 657.22 L 604.24 661.51 L 612.63 662.90 L 619.31 663.53 L 634.86 662.79 L 643.30 660.73 L 649.35 658.26 L 657.21 653.32 L 660.31 650.82 L 670.15 640.77 L 674.57 634.80 L 678.21 628.86 L 686.15 612.87 L 688.13 608.66 L 693.25 595.73 L 697.25 582.46 L 699.39 573.34 L 703.29 552.65 L 704.52 539.88 L 704.84 527.71 L 703.86 516.54 L 697.80 491.16 L 690.33 472.89 L 683.96 460.58 L 676.76 448.49 L 667.12 434.89 L 647.40 412.93 L 629.81 393.98 L 622.98 386.61 L 600.59 362.40 L 586.08 346.58 L 578.19 338.19 L 565.10 324.55 L 549.70 308.74 L 539.41 298.16 L 523.96 282.15 L 515.71 273.58 L 506.32 263.89 L 489.99 246.89 L 479.04 234.79 L 473.09 227.50 L 458.11 202.30 L 455.87 196.59 L 452.48 183.24 L 451.40 172.55 L 451.28 163.83 L 451.80 155.35 L 453.73 142.54 L 456.13 133.57 L 458.03 128.35 L 464.16 116.22 L 471.08 106.44 L 479.51 96.98 L 493.81 85.90 L 509.28 77.64 L 519.50 73.69 L 528.32 71.22 L 542.19 68.64 L 556.58 67.36 L 573.92 67.09 L 582.95 67.33 L 598.35 68.24 L 614.39 70.36 L 627.15 73.47 L 638.46 77.85 L 645.50 81.42 L 648.12 83.06 L 655.23 88.62 L 659.56 93.79 L 662.09 100.45 L 662.48 105.56 L 662.15 109.44 L 660.45 115.60 L 660.10 116.31 L 658.20 120.15 L 654.09 126.48 L 650.30 131.31 L 647.61 134.68 L 642.34 140.87 L 635.44 149.67 L 632.43 154.06 L 627.24 163.62 L 624.41 171.81 L 623.40 177.51 L 623.19 183.59 L 623.73 188.05 L 625.90 195.03 L 628.34 199.79 L 631.73 204.26 L 637.20 209.18 L 642.75 212.33 L 650.46 215.06 L 655.68 216.06 L 664.37 216.53 L 669.79 216.10 L 674.17 215.45 L 681.56 213.67 L 688.56 211.40 L 695.86 208.61 L 702.02 205.68 L 707.68 202.73 L 719.86 195.55 L 728.74 190.03 L 734.50 186.62 L 745.52 180.27 L 756.27 174.76 L 771.42 168.01 L 786.00 162.62 L 795.76 159.86 L 801.48 158.51 L 816.34 155.94 L 827.89 155.04 L 838.37 155.39 L 846.39 156.70 L 853.77 158.66 L 858.45 160.35 L 865.28 163.97 L 867.98 166.12 L 870.97 169.23 L 874.90 178.16 L 875.00 182.33 L 872.95 190.08 L 870.57 194.81 L 868.56 197.74 L 864.76 202.16 L 862.59 204.47 L 859.57 207.08 L 854.96 210.64 L 849.75 214.27 L 845.21 217.06 L 839.58 220.31 L 835.48 222.40 L 831.73 224.26 L 825.69 227.13 L 821.33 229.06 L 819.26 230.00 L 813.75 232.68 L 805.44 236.94 L 802.11 238.70 L 791.06 245.14 L 780.84 252.34 L 771.47 262.10 L 765.01 271.58 L 755.80 292.14 L 753.81 298.23 L 751.07 308.80 L 749.21 320.84 L 748.86 329.46 L 750.49 349.15 L 752.61 359.18 L 757.54 374.05 L 764.90 388.64 L 769.72 396.18 L 788.47 418.04 L 796.97 426.36 L 813.15 441.25 L 827.03 453.97 L 834.20 460.63 L 878.38 498.94 L 882.95 502.09 L 893.07 507.40 L 900.88 509.65 L 907.31 510.52 L 911.88 510.41 L 919.81 508.84 L 926.66 506.34 L 935.57 500.64 L 941.86 494.77 L 944.27 492.22 L 948.81 486.67 L 952.93 481.23 L 958.29 473.18 L 962.19 466.91 L 965.09 462.09 L 969.15 455.06 L 973.34 446.97 L 979.39 433.35 L 981.39 427.65 L 985.32 414.27 L 990.11 390.81 L 991.70 375.94 L 992.17 366.27 L 992.50 340.57 L 991.69 324.90 L 989.81 306.34 L 987.16 288.60 L 982.61 268.18 L 977.45 250.20 L 971.92 234.91 L 964.63 218.56 L 955.26 201.36 L 952.32 196.59 L 933.26 170.62 L 915.25 151.79 L 906.54 144.01 L 896.28 135.61 L 873.50 119.22 L 851.94 105.95 L 837.53 98.05 L 818.50 88.67 L 794.91 77.94 L 762.69 63.29 L 741.32 54.21 L 725.28 47.93 L 712.08 43.15 L 709.12 42.23 L 691.12 36.33 L 677.55 32.36 L 651.65 25.57 L 618.97 18.62 L 579.46 12.69 L 563.51 11.08 L 539.52 9.24 L 520.18 8.29 L 503.99 7.81 L 489.54 7.50 L 473.35 7.51 L 432.85 8.09 L 405.32 8.95 L 387.51 9.60 L 369.70 10.26 Z" fill="none" stroke="black" stroke-width="15"/>
</svg>
