<svg xmlns="http://www.w3.org/2000/svg" width="1000.00" height="551.06" viewBox="0 0 1000.00 551.06">
  <path d="M 403.86 166.06 L 406.90 176.33 L 409.52 185.26 L 411.68 192.61 L 414.40 201.77 L 416.93 210.22 L 419.68 219.56 L 421.97 227.32 L 424.55 236.01 L 426.87 243.95 L 430.81 257.25 L 434.77 270.67 L 438.26 282.46 L 440.90 291.51 L 444.19 302.53 L 446.36 309.94 L 451.05 325.75 L 453.21 333.10 L 456.99 347.60 L 459.92 356.90 L 465.33 367.74 L 469.19 372.21 L 474.33 375.97 L 482.62 378.75 L 487.97 379.15 L 497.00 378.48 L 502.36 377.60 L 510.17 375.91 L 518.89 373.52 L 525.92 371.23 L 531.12 369.40 L 539.83 366.20 L 545.27 364.01 L 551.28 361.54 L 557.56 358.84 L 567.43 354.28 L 570.32 352.91 L 588.58 343.98 L 592.16 342.00 L 605.50 333.44 L 610.97 328.61 L 616.52 321.43 L 621.81 309.64 L 623.84 300.99 L 624.95 293.00 L 626.02 284.09 L 627.82 272.73 L 629.03 265.64 L 630.46 256.73 L 638.26 237.25 L 651.50 222.15 L 661.15 215.29 L 672.04 210.18 L 685.40 206.90 L 697.59 205.73 L 711.57 205.29 L 724.50 205.16 L 731.97 205.07 L 748.80 205.11 L 758.25 205.10 L 772.54 205.04 L 790.69 204.23 L 812.73 201.45 L 833.73 197.69 L 847.14 195.02 L 853.83 193.65 L 863.29 191.55 L 878.50 188.01 L 887.03 185.89 L 903.25 181.81 L 916.57 178.35 L 934.70 173.56 L 943.24 171.19 L 954.60 167.72 L 966.29 163.39 L 974.65 159.27 L 981.18 154.87 L 985.35 151.00 L 988.50 146.95 L 990.51 143.34 L 991.41 141.15 L 992.50 135.50 L 991.24 129.03 L 990.04 126.79 L 987.86 123.80 L 984.58 120.51 L 981.79 118.30 L 974.73 114.45 L 969.56 112.60 L 965.05 111.43 L 956.61 109.85 L 946.67 108.47 L 934.04 106.83 L 928.01 106.05 L 921.10 105.18 L 911.11 103.87 L 899.17 102.30 L 892.27 101.43 L 881.27 99.99 L 874.03 98.99 L 862.59 97.45 L 850.10 95.54 L 839.04 93.75 L 828.74 92.06 L 818.19 90.36 L 811.23 89.20 L 793.15 86.24 L 783.98 84.73 L 778.36 83.82 L 754.79 80.00 L 743.28 78.10 L 734.62 76.68 L 719.01 74.15 L 707.13 72.19 L 695.20 70.31 L 688.18 69.15 L 676.10 67.17 L 667.01 65.70 L 656.83 64.06 L 646.65 62.36 L 630.22 59.67 L 619.85 58.00 L 607.46 55.94 L 589.82 53.04 L 571.31 50.04 L 563.15 48.72 L 551.65 46.82 L 543.25 45.48 L 521.12 41.83 L 506.33 39.40 L 484.08 35.77 L 472.36 33.73 L 457.53 31.06 L 444.74 28.84 L 428.71 26.02 L 416.99 23.97 L 407.35 22.23 L 385.61 18.33 L 373.04 15.94 L 363.45 14.14 L 349.78 11.82 L 342.09 10.66 L 329.68 8.86 L 326.66 8.47 L 318.73 7.72 L 311.27 7.50 L 306.76 7.68 L 303.02 8.09 L 300.40 8.56 L 292.98 10.66 L 290.93 11.58 L 288.60 12.97 L 285.60 16.14 L 284.81 18.30 L 285.22 23.76 L 286.89 28.37 L 288.80 33.25 L 290.32 38.39 L 290.66 40.66 L 290.19 46.02 L 289.03 48.87 L 287.23 51.52 L 284.82 53.84 L 279.83 57.24 L 274.94 59.82 L 268.31 62.95 L 263.64 65.01 L 252.65 69.83 L 248.26 71.77 L 243.20 74.07 L 235.64 77.80 L 229.70 81.06 L 224.92 83.87 L 215.22 90.12 L 209.65 94.05 L 206.62 96.36 L 195.37 106.02 L 190.69 110.46 L 183.19 118.05 L 178.66 123.02 L 173.67 128.81 L 168.30 135.59 L 161.59 144.88 L 157.13 151.62 L 151.88 160.15 L 147.19 168.04 L 139.17 181.73 L 135.42 188.29 L 127.69 201.56 L 122.84 209.90 L 114.46 224.33 L 103.95 242.39 L 98.34 251.97 L 92.21 262.51 L 85.58 273.99 L 80.92 281.99 L 77.30 288.28 L 71.26 298.92 L 67.26 306.19 L 56.77 326.77 L 48.89 344.05 L 48.07 346.04 L 40.50 364.69 L 34.54 381.76 L 31.01 394.11 L 27.51 407.67 L 21.83 430.78 L 16.90 453.31 L 14.76 463.82 L 11.60 479.66 L 9.77 488.45 L 7.50 503.40 L 7.68 508.96 L 9.70 516.95 L 14.11 525.57 L 16.86 529.32 L 26.34 537.83 L 41.18 543.32 L 46.07 543.56 L 52.28 542.90 L 59.08 541.09 L 66.37 537.90 L 72.23 534.53 L 76.69 531.29 L 84.00 524.72 L 92.11 514.64 L 97.38 502.78 L 98.50 492.76 L 97.31 473.51 L 97.11 454.95 L 96.87 444.19 L 96.42 437.45 L 95.74 429.77 L 94.99 422.05 L 94.24 414.32 L 92.38 395.07 L 91.22 382.57 L 90.50 370.79 L 90.60 362.67 L 93.07 347.44 L 96.17 337.50 L 100.53 326.05 L 104.29 317.41 L 107.63 310.62 L 111.13 303.98 L 119.46 291.71 L 131.63 280.30 L 148.19 271.18 L 160.58 266.23 L 171.58 262.82 L 175.42 261.96 L 184.63 260.58 L 185.53 260.48 L 190.16 260.28 L 198.66 261.48 L 202.81 263.82 L 205.70 267.30 L 207.76 271.66 L 208.90 275.69 L 209.65 279.61 L 210.07 283.71 L 210.49 289.96 L 211.62 298.11 L 215.30 306.06 L 220.70 311.98 L 223.75 314.63 L 230.54 319.39 L 232.69 320.42 L 236.32 321.56 L 241.30 322.28 L 248.10 322.19 L 252.40 321.86 L 260.57 320.85 L 265.08 319.99 L 270.64 318.46 L 281.51 312.55 L 285.72 308.25 L 291.39 298.96 L 294.84 286.81 L 294.11 274.36 L 291.12 262.98 L 287.45 251.90 L 285.77 246.92 L 283.70 240.71 L 281.22 232.93 L 278.34 223.55 L 275.72 215.30 L 271.55 203.14 L 268.12 193.80 L 263.60 181.03 L 259.91 168.79 L 258.36 157.22 L 259.98 142.38 L 262.07 134.77 L 270.37 119.86 L 281.63 108.86 L 286.48 104.69 L 294.62 97.60 L 300.74 92.29 L 308.34 85.91 L 322.06 76.37 L 332.10 71.35 L 338.83 68.75 L 345.18 66.83 L 353.42 65.20 L 359.14 64.56 L 359.01 64.52 L 367.08 65.00 L 371.17 66.30 L 374.73 68.74 L 376.00 69.99 L 379.33 75.30 L 381.34 80.78 L 384.47 92.99 L 385.93 97.77 L 388.09 104.45 L 389.78 110.90 L 391.37 117.80 L 392.34 122.30 L 393.54 127.36 L 395.41 135.51 L 397.53 144.77 L 399.07 150.70 Z" fill="none" stroke="black" stroke-width="15"/>
</svg>
