<svg xmlns="http://www.w3.org/2000/svg" width="1000.00" height="857.46" viewBox="0 0 1000.00 857.46">
  <path d="M 178.32 263.38 L 191.50 231.14 L 199.21 212.39 L 211.07 183.29 L 217.35 167.88 L 226.99 143.85 L 232.56 128.24 L 243.51 90.83 L 249.29 69.85 L 252.63 58.60 L 257.30 45.31 L 261.86 35.28 L 267.44 26.36 L 273.72 19.16 L 281.22 13.48 L 288.62 9.93 L 301.91 7.50 L 310.93 8.41 L 323.80 13.28 L 330.90 19.67 L 333.94 23.52 L 338.81 32.03 L 342.56 45.72 L 342.96 55.55 L 340.63 71.57 L 337.29 83.74 L 331.31 101.28 L 325.53 116.69 L 320.05 129.66 L 315.19 140.61 L 306.57 159.77 L 300.59 173.86 L 291.67 202.35 L 289.64 219.59 L 289.54 227.80 L 291.77 256.99 L 292.88 275.45 L 290.65 294.10 L 289.13 298.56 L 281.22 311.74 L 267.74 323.40 L 250.00 332.42 L 231.45 339.52 L 216.04 345.19 L 202.35 351.07 L 189.37 359.29 L 181.77 367.70 L 177.92 375.10 L 175.49 388.08 L 175.89 394.87 L 177.51 401.26 L 180.35 407.64 L 194.54 420.01 L 203.77 423.56 L 213.00 424.98 L 224.76 423.97 L 241.99 419.40 L 246.75 417.98 L 265.92 412.10 L 276.36 408.15 L 288.22 403.59 L 293.79 401.56 L 312.14 395.17 L 330.29 389.50 L 342.86 386.15 L 358.58 382.91 L 384.43 379.76 L 412.71 379.16 L 441.81 381.49 L 462.59 384.83 L 494.02 390.81 L 507.70 393.35 L 538.42 397.40 L 552.51 397.91 L 579.08 395.78 L 602.19 390.00 L 615.67 384.93 L 633.21 376.62 L 650.14 366.99 L 666.67 356.85 L 681.98 347.63 L 699.01 338.50 L 716.75 331.00 L 733.68 325.93 L 747.97 323.09 L 766.63 320.96 L 782.75 319.95 L 795.22 319.55 L 811.54 319.24 L 827.76 319.24 L 868.41 319.95 L 889.60 321.17 L 904.20 322.89 L 918.19 325.73 L 930.05 329.58 L 946.58 338.00 L 961.28 349.45 L 978.51 370.84 L 986.42 387.16 L 990.57 401.26 L 992.50 428.12 L 990.37 445.15 L 979.52 475.36 L 974.25 484.59 L 965.53 498.58 L 952.76 518.65 L 945.66 530.01 L 936.94 544.10 L 928.43 558.50 L 919.00 576.03 L 910.48 594.18 L 902.98 611.21 L 897.41 623.99 L 892.13 635.14 L 885.04 648.22 L 873.08 663.12 L 855.64 673.87 L 833.64 679.24 L 826.64 679.95 L 807.58 680.35 L 783.46 678.43 L 772.71 676.81 L 755.37 672.95 L 739.46 668.09 L 726.48 662.92 L 716.85 658.25 L 703.37 650.24 L 695.56 644.36 L 684.21 633.82 L 683.50 633.21 L 676.91 625.10 L 673.46 619.63 L 669.10 607.77 L 669.00 599.45 L 670.32 594.89 L 675.89 584.96 L 682.89 576.74 L 688.67 571.47 L 690.19 570.26 L 697.08 565.09 L 709.55 557.68 L 714.21 555.35 L 728.41 549.68 L 740.57 546.13 L 754.77 542.98 L 766.32 541.26 L 778.69 539.64 L 788.22 538.12 L 805.86 534.57 L 816.40 531.83 L 822.28 530.01 L 829.79 527.37 L 839.21 523.32 L 851.89 515.31 L 858.38 508.62 L 860.71 504.66 L 863.24 499.29 L 865.47 491.99 L 866.28 485.91 L 866.18 480.43 L 862.84 465.33 L 859.59 458.64 L 850.87 447.08 L 846.62 443.33 L 830.70 434.51 L 820.46 431.47 L 803.23 428.12 L 794.10 426.80 L 784.57 425.49 L 777.68 424.57 L 764.30 422.85 L 753.65 421.63 L 736.62 420.11 L 727.19 419.61 L 713.71 419.30 L 702.45 419.40 L 676.30 420.82 L 661.40 422.14 L 638.08 425.08 L 607.16 430.86 L 592.86 434.20 L 563.77 442.01 L 529.91 452.96 L 519.46 456.71 L 490.27 467.66 L 476.68 472.22 L 465.23 475.77 L 449.61 480.43 L 432.48 486.01 L 413.83 492.40 L 396.90 498.99 L 378.85 506.59 L 366.89 511.96 L 362.53 514.09 L 345.30 522.71 L 335.97 526.97 L 325.43 530.21 L 316.50 529.81 L 308.09 525.34 L 300.08 518.05 L 292.78 512.06 L 284.97 507.91 L 270.98 505.07 L 260.44 505.98 L 259.33 506.18 L 252.94 508.31 L 249.09 510.24 L 243.11 514.50 L 238.85 519.26 L 235.91 523.93 L 233.78 529.40 L 232.46 537.31 L 232.76 546.94 L 234.18 556.67 L 237.23 575.12 L 240.27 592.15 L 241.79 600.97 L 244.73 617.90 L 247.46 633.52 L 252.23 660.58 L 254.56 674.07 L 257.81 693.03 L 260.75 709.85 L 263.58 725.77 L 266.63 743.21 L 268.45 754.06 L 270.68 767.64 L 272.30 780.72 L 270.88 806.98 L 263.28 824.62 L 257.91 831.71 L 254.05 835.67 L 244.93 842.26 L 230.03 848.14 L 219.18 849.66 L 206.61 849.96 L 191.40 849.25 L 166.06 847.93 L 153.08 847.02 L 134.73 844.69 L 125.40 842.86 L 114.76 840.13 L 96.11 833.74 L 85.46 829.38 L 67.62 819.75 L 55.66 811.23 L 39.23 795.93 L 24.53 776.56 L 20.58 769.97 L 13.48 754.66 L 9.73 743.01 L 7.50 715.13 L 9.02 702.25 L 10.95 692.82 L 15.71 677.51 L 32.64 637.47 L 39.64 619.02 L 47.44 598.95 L 53.53 583.33 L 58.39 570.76 L 68.23 545.22 L 76.34 524.33 L 84.45 503.24 L 90.73 486.82 L 98.44 466.85 L 107.05 444.55 L 109.59 437.85 L 120.54 409.57 L 126.32 394.46 L 136.15 369.22 L 142.84 351.89 L 150.04 333.23 L 158.25 312.35 Z" fill="none" stroke="black" stroke-width="15"/>
</svg>
